<?xml version="1.0" encoding="UTF-8" standalone="no"?>
<!DOCTYPE svg PUBLIC "-//W3C//DTD SVG 1.1//EN" "http://www.w3.org/Graphics/SVG/1.1/DTD/svg11.dtd">
<!-- 由 Microsoft Visio, SVG Export 生成 一个简单的多人Git工作流程的通常事件顺序.svg Page-1 -->
<svg xmlns="http://www.w3.org/2000/svg" xmlns:xlink="http://www.w3.org/1999/xlink" xmlns:ev="http://www.w3.org/2001/xml-events"
		xmlns:v="http://schemas.microsoft.com/visio/2003/SVGExtensions/" width="7.8066in" height="8.21958in"
		viewBox="0 0 562.075 591.81" xml:space="preserve" color-interpolation-filters="sRGB" class="st10">
	<v:documentProperties v:langID="2052" v:metric="true" v:viewMarkup="false">
		<v:userDefs>
			<v:ud v:nameU="msvSubprocessMaster" v:prompt="" v:val="VT4(Rectangle)"/>
			<v:ud v:nameU="msvNoAutoConnect" v:val="VT0(1):26"/>
		</v:userDefs>
	</v:documentProperties>

	<style type="text/css">
	<![CDATA[
		.st1 {fill:#ff0000;stroke:#4f87bb;stroke-width:0.75}
		.st2 {stroke:#5b9bd5;stroke-dasharray:7,5;stroke-linecap:round;stroke-linejoin:round;stroke-width:1}
		.st3 {fill:#ffffff;font-family:Consolas;font-size:1.16666em}
		.st4 {marker-end:url(#mrkr4-45);stroke:#5b9bd5;stroke-linecap:round;stroke-linejoin:round;stroke-width:1}
		.st5 {fill:#5b9bd5;fill-opacity:1;stroke:#5b9bd5;stroke-opacity:1;stroke-width:0.28409090909091}
		.st6 {fill:#ffffff;stroke:none;stroke-linecap:butt;stroke-width:7.2}
		.st7 {fill:#4f87bb;font-family:Calibri;font-size:1.16666em}
		.st8 {fill:#ffffff;stroke:none;stroke-linecap:butt}
		.st9 {fill:#4f88bb;font-family:Calibri;font-size:1.16666em}
		.st10 {fill:none;fill-rule:evenodd;font-size:12px;overflow:visible;stroke-linecap:square;stroke-miterlimit:3}
	]]>
	</style>

	<defs id="Markers">
		<g id="lend4">
			<path d="M 2 1 L 0 0 L 2 -1 L 2 1 " style="stroke:none"/>
		</g>
		<marker id="mrkr4-45" class="st5" v:arrowType="4" v:arrowSize="2" v:setback="7.04" refX="-7.04" orient="auto"
				markerUnits="strokeWidth" overflow="visible">
			<use xlink:href="#lend4" transform="scale(-3.52,-3.52) "/>
		</marker>
	</defs>
	<g v:mID="0" v:index="1" v:groupContext="foregroundPage">
		<v:userDefs>
			<v:ud v:nameU="msvThemeOrder" v:val="VT0(0):26"/>
		</v:userDefs>
		<title>页-1</title>
		<v:pageProperties v:drawingScale="0.0393701" v:pageScale="0.0393701" v:drawingUnits="24" v:shadowOffsetX="8.50394"
				v:shadowOffsetY="-8.50394"/>
		<v:layer v:name="连接线" v:index="0"/>
		<g id="group15-1" transform="translate(18,-528.043)" v:mID="15" v:groupContext="group">
			<v:userDefs>
				<v:ud v:nameU="visVersion" v:prompt="" v:val="VT0(15):26"/>
				<v:ud v:nameU="ShowActor" v:prompt="" v:val="VT0(0):5"/>
				<v:ud v:nameU="ShowDestruction" v:prompt="" v:val="VT0(0):5"/>
			</v:userDefs>
			<title>对象生命线</title>
			<desc>Jessica</desc>
			<g id="shape16-2" v:mID="16" v:groupContext="shape" transform="translate(35.5108,-10.1276)">
				<title>工作表.16</title>
				<rect x="0" y="566.298" width="51.0236" height="25.5118" class="st1"/>
			</g>
			<g id="shape17-4" v:mID="17" v:groupContext="shape" transform="translate(52.5186,-49.3102)">
				<title>工作表.17</title>
				<path d="M8.5 591.81 a0 0 0 1 1 0 0 a0 0 0 1 1 0 0 Z" class="st1"/>
			</g>
			<g id="shape18-6" v:mID="18" v:groupContext="shape" transform="translate(40.6817,505.75)">
				<title>工作表.18</title>
			</g>
			<g id="shape19-8" v:mID="19" v:groupContext="shape" transform="translate(652.833,591.81) rotate(90)">
				<title>工作表.19</title>
				<path d="M0 591.81 L480.9 591.81" class="st2"/>
			</g>
			<g id="shape15-11" v:mID="15" v:groupContext="groupContent">
				<v:textBlock v:margins="rect(4,4,4,4)" v:tabSpace="42.5197"/>
				<v:textRect cx="61.0226" cy="568.927" width="122.05" height="45.7669"/>
				<rect x="0" y="546.043" width="122.045" height="45.7669" class="st1"/>
				<text x="34.08" y="573.13" class="st3" v:langID="2052"><v:paragraph v:horizAlign="1"/><v:tabList/>Jessica</text>			</g>
		</g>
		<g id="group20-14" transform="translate(191.659,-528.043)" v:mID="20" v:groupContext="group">
			<v:userDefs>
				<v:ud v:nameU="visVersion" v:prompt="" v:val="VT0(15):26"/>
				<v:ud v:nameU="ShowActor" v:prompt="" v:val="VT0(0):5"/>
				<v:ud v:nameU="ShowDestruction" v:prompt="" v:val="VT0(0):5"/>
			</v:userDefs>
			<title>对象生命线.20</title>
			<desc>Jessica</desc>
			<g id="shape21-15" v:mID="21" v:groupContext="shape" transform="translate(35.5108,-10.1276)">
				<title>工作表.21</title>
				<rect x="0" y="566.298" width="51.0236" height="25.5118" class="st1"/>
			</g>
			<g id="shape22-17" v:mID="22" v:groupContext="shape" transform="translate(52.5186,-49.3102)">
				<title>工作表.22</title>
				<path d="M8.5 591.81 a0 0 0 1 1 0 0 a0 0 0 1 1 0 0 Z" class="st1"/>
			</g>
			<g id="shape23-19" v:mID="23" v:groupContext="shape" transform="translate(40.6817,505.75)">
				<title>工作表.23</title>
			</g>
			<g id="shape24-21" v:mID="24" v:groupContext="shape" transform="translate(652.833,591.81) rotate(90)">
				<title>工作表.24</title>
				<path d="M0 591.81 L480.9 591.81" class="st2"/>
			</g>
			<g id="shape20-24" v:mID="20" v:groupContext="groupContent">
				<v:textBlock v:margins="rect(4,4,4,4)" v:tabSpace="42.5197"/>
				<v:textRect cx="61.0226" cy="568.927" width="122.05" height="45.7669"/>
				<rect x="0" y="546.043" width="122.045" height="45.7669" class="st1"/>
				<text x="34.08" y="573.13" class="st3" v:langID="2052"><v:paragraph v:horizAlign="1"/><v:tabList/>Jessica</text>			</g>
		</g>
		<g id="group25-27" transform="translate(365.317,-528.043)" v:mID="25" v:groupContext="group">
			<v:userDefs>
				<v:ud v:nameU="visVersion" v:prompt="" v:val="VT0(15):26"/>
				<v:ud v:nameU="ShowActor" v:prompt="" v:val="VT0(0):5"/>
				<v:ud v:nameU="ShowDestruction" v:prompt="" v:val="VT0(0):5"/>
			</v:userDefs>
			<title>对象生命线.25</title>
			<desc>Jessica</desc>
			<g id="shape26-28" v:mID="26" v:groupContext="shape" transform="translate(35.5108,-10.1276)">
				<title>工作表.26</title>
				<rect x="0" y="566.298" width="51.0236" height="25.5118" class="st1"/>
			</g>
			<g id="shape27-30" v:mID="27" v:groupContext="shape" transform="translate(52.5186,-49.3102)">
				<title>工作表.27</title>
				<path d="M8.5 591.81 a0 0 0 1 1 0 0 a0 0 0 1 1 0 0 Z" class="st1"/>
			</g>
			<g id="shape28-32" v:mID="28" v:groupContext="shape" transform="translate(40.6817,505.75)">
				<title>工作表.28</title>
			</g>
			<g id="shape29-34" v:mID="29" v:groupContext="shape" transform="translate(652.833,591.81) rotate(90)">
				<title>工作表.29</title>
				<path d="M0 591.81 L480.9 591.81" class="st2"/>
			</g>
			<g id="shape25-37" v:mID="25" v:groupContext="groupContent">
				<v:textBlock v:margins="rect(4,4,4,4)" v:tabSpace="42.5197"/>
				<v:textRect cx="61.0226" cy="568.927" width="122.05" height="45.7669"/>
				<rect x="0" y="546.043" width="122.045" height="45.7669" class="st1"/>
				<text x="34.08" y="573.13" class="st3" v:langID="2052"><v:paragraph v:horizAlign="1"/><v:tabList/>Jessica</text>			</g>
		</g>
		<g id="shape30-40" v:mID="30" v:groupContext="shape" v:layerMember="0" transform="translate(252.681,-486.941)">
			<title>动态连接线</title>
			<desc>git clone</desc>
			<v:textBlock v:margins="rect(4,4,4,4)" v:tabSpace="42.5197"/>
			<v:textRect cx="86.8293" cy="584.723" width="70" height="24.8035"/>
			<path d="M0 584.72 L68.54 584.72 L166.62 584.72" class="st4"/>
			<rect v:rectContext="textBkgnd" x="62.5821" y="576.324" width="48.4942" height="16.8" class="st6"/>
			<text x="62.58" y="588.92" class="st7" v:langID="2052"><v:paragraph v:horizAlign="1"/><v:tabList/>git clone</text>		</g>
		<g id="shape31-48" v:mID="31" v:groupContext="shape" v:layerMember="0" transform="translate(252.681,-285.681)">
			<title>动态连接线.31</title>
			<desc>git fetch</desc>
			<v:textBlock v:margins="rect(4,4,4,4)" v:tabSpace="42.5197"/>
			<v:textRect cx="86.8293" cy="584.723" width="70.01" height="24.8035"/>
			<path d="M0 584.72 L68.54 584.72 L166.62 584.72" class="st4"/>
			<rect v:rectContext="textBkgnd" x="63.3992" y="576.324" width="46.8603" height="16.8" class="st6"/>
			<text x="63.4" y="588.92" class="st7" v:langID="2052"><v:paragraph v:horizAlign="1"/><v:tabList/>git fetch</text>		</g>
		<g id="shape33-55" v:mID="33" v:groupContext="shape" v:layerMember="0" transform="translate(252.681,-95.7596)">
			<title>动态连接线.33</title>
			<desc>git fetch</desc>
			<v:textBlock v:margins="rect(4,4,4,4)" v:tabSpace="42.5197"/>
			<v:textRect cx="86.8293" cy="584.723" width="70.01" height="24.8035"/>
			<path d="M0 584.72 L68.54 584.72 L166.62 584.72" class="st4"/>
			<rect v:rectContext="textBkgnd" x="63.3992" y="576.324" width="46.8603" height="16.8" class="st6"/>
			<text x="63.4" y="588.92" class="st7" v:langID="2052"><v:paragraph v:horizAlign="1"/><v:tabList/>git fetch</text>		</g>
		<g id="shape34-62" v:mID="34" v:groupContext="shape" v:layerMember="0" transform="translate(251.771,-415.759)">
			<title>动态连接线.34</title>
			<desc>git clone</desc>
			<v:textBlock v:margins="rect(4,4,4,4)" v:tabSpace="42.5197"/>
			<v:textRect cx="-86.8293" cy="584.723" width="70" height="24.8035"/>
			<path d="M0 584.72 L-95.19 584.72 L-166.62 584.72" class="st4"/>
			<rect v:rectContext="textBkgnd" x="-111.076" y="576.324" width="48.4942" height="16.8" class="st6"/>
			<text x="-111.08" y="588.92" class="st7" v:langID="2052"><v:paragraph v:horizAlign="1"/><v:tabList/>git clone</text>		</g>
		<g id="shape35-69" v:mID="35" v:groupContext="shape" v:layerMember="0" transform="translate(426.34,-214.815)">
			<title>动态连接线.35</title>
			<desc>git push</desc>
			<v:textBlock v:margins="rect(4,4,4,4)" v:tabSpace="42.5197"/>
			<v:textRect cx="-86.8293" cy="584.723" width="70" height="24.8035"/>
			<path d="M0 584.72 L-105.12 584.72 L-166.62 584.72" class="st4"/>
			<rect v:rectContext="textBkgnd" x="-109.429" y="576.324" width="45.1989" height="16.8" class="st8"/>
			<text x="-109.43" y="588.92" class="st7" v:langID="2052"><v:paragraph v:horizAlign="1"/><v:tabList/>git push</text>		</g>
		<g id="shape36-76" v:mID="36" v:groupContext="shape" v:layerMember="0" transform="translate(419.253,-272.925)">
			<title>自关联消息</title>
			<desc>git merge</desc>
			<v:userDefs>
				<v:ud v:nameU="IsReturn" v:prompt="" v:val="VT0(0):5"/>
				<v:ud v:nameU="IsAsync" v:prompt="" v:val="VT0(0):26"/>
				<v:ud v:nameU="IsSelfMessage" v:prompt="" v:val="VT0(1):5"/>
				<v:ud v:nameU="visVersion" v:prompt="" v:val="VT0(15):26"/>
			</v:userDefs>
			<v:textBlock v:margins="rect(4,4,4,4)" v:tabSpace="42.5197"/>
			<v:textRect cx="69.2205" cy="605.983" width="70.01" height="24.8035"/>
			<path d="M7.09 591.81 L25.09 591.81 L25.09 620.16 L14.13 620.16" class="st4"/>
			<rect v:rectContext="textBkgnd" x="42.0988" y="597.584" width="54.2433" height="16.8" class="st6"/>
			<text x="42.1" y="610.18" class="st9" v:langID="2052"><v:paragraph v:horizAlign="1"/><v:tabList/>git merge</text>		</g>
		<g id="shape37-83" v:mID="37" v:groupContext="shape" v:layerMember="0" transform="translate(419.253,-477.019)">
			<title>自关联消息.37</title>
			<desc>git commit</desc>
			<v:userDefs>
				<v:ud v:nameU="IsReturn" v:prompt="" v:val="VT0(0):5"/>
				<v:ud v:nameU="IsAsync" v:prompt="" v:val="VT0(0):26"/>
				<v:ud v:nameU="IsSelfMessage" v:prompt="" v:val="VT0(1):5"/>
				<v:ud v:nameU="visVersion" v:prompt="" v:val="VT0(15):26"/>
			</v:userDefs>
			<v:textBlock v:margins="rect(4,4,4,4)" v:tabSpace="42.5197"/>
			<v:textRect cx="69.2205" cy="608.108" width="72.4" height="24.8035"/>
			<path d="M7.09 591.81 L25.09 591.81 L25.09 620.16 L14.13 620.16" class="st4"/>
			<rect v:rectContext="textBkgnd" x="38.6058" y="599.708" width="61.2296" height="16.8" class="st6"/>
			<text x="38.61" y="612.31" class="st9" v:langID="2052"><v:paragraph v:horizAlign="1"/><v:tabList/>git commit</text>		</g>
		<g id="shape38-90" v:mID="38" v:groupContext="shape" v:layerMember="0" transform="translate(79.0226,-359.382)">
			<title>动态连接线.38</title>
			<desc>git push</desc>
			<v:textBlock v:margins="rect(4,4,4,4)" v:tabSpace="42.5197"/>
			<v:textRect cx="86.8293" cy="584.723" width="70.01" height="24.8035"/>
			<path d="M0 584.72 L78.42 584.72 L166.62 584.72" class="st4"/>
			<rect v:rectContext="textBkgnd" x="64.2298" y="576.324" width="45.1989" height="16.8" class="st8"/>
			<text x="64.23" y="588.92" class="st7" v:langID="2052"><v:paragraph v:horizAlign="1"/><v:tabList/>git push</text>		</g>
		<g id="shape40-97" v:mID="40" v:groupContext="shape" v:layerMember="0" transform="translate(252.681,-194.972)">
			<title>动态连接线.40</title>
			<desc>git fetch</desc>
			<v:textBlock v:margins="rect(4,4,4,4)" v:tabSpace="42.5197"/>
			<v:textRect cx="-86.8293" cy="584.723" width="70" height="24.8035"/>
			<path d="M0 584.72 L-95.24 584.72 L-166.62 584.72" class="st4"/>
			<rect v:rectContext="textBkgnd" x="-110.259" y="576.324" width="46.8603" height="16.8" class="st6"/>
			<text x="-110.26" y="588.92" class="st7" v:langID="2052"><v:paragraph v:horizAlign="1"/><v:tabList/>git fetch</text>		</g>
		<g id="shape41-104" v:mID="41" v:groupContext="shape" v:layerMember="0" transform="translate(79.0226,-124.106)">
			<title>动态连接线.41</title>
			<desc>git push</desc>
			<v:textBlock v:margins="rect(4,4,4,4)" v:tabSpace="42.5197"/>
			<v:textRect cx="86.8293" cy="584.723" width="70.01" height="24.8035"/>
			<path d="M0 584.72 L78.42 584.72 L166.62 584.72" class="st4"/>
			<rect v:rectContext="textBkgnd" x="64.2298" y="576.324" width="45.1989" height="16.8" class="st6"/>
			<text x="64.23" y="588.92" class="st7" v:langID="2052"><v:paragraph v:horizAlign="1"/><v:tabList/>git push</text>		</g>
		<g id="shape45-111" v:mID="45" v:groupContext="shape" v:layerMember="0" transform="translate(71.936,-414.657)">
			<title>动态连接线.45</title>
			<desc>git commit</desc>
			<v:textBlock v:margins="rect(4,4,4,4)" v:tabSpace="42.5197"/>
			<v:textRect cx="-36.9212" cy="605.983" width="72.4" height="24.8035"/>
			<path d="M7.09 591.81 L-14.24 591.81 L-14.24 620.16 L0.05 620.16" class="st4"/>
			<rect v:rectContext="textBkgnd" x="-67.5359" y="597.584" width="61.2296" height="16.8" class="st6"/>
			<text x="-67.54" y="610.18" class="st7" v:langID="2052"><v:paragraph v:horizAlign="1"/><v:tabList/>git commit</text>		</g>
		<g id="shape49-118" v:mID="49" v:groupContext="shape" v:layerMember="0" transform="translate(71.936,-185.051)">
			<title>动态连接线.49</title>
			<desc>git merge</desc>
			<v:textBlock v:margins="rect(4,4,4,4)" v:tabSpace="42.5197"/>
			<v:textRect cx="-38.3386" cy="610.235" width="70" height="24.8035"/>
			<path d="M7.09 591.81 L-28.12 591.81 L-28.12 625.83 L0.05 625.83" class="st4"/>
			<rect v:rectContext="textBkgnd" x="-65.4603" y="601.836" width="54.2433" height="16.8" class="st8"/>
			<text x="-65.46" y="614.44" class="st7" v:langID="2052"><v:paragraph v:horizAlign="1"/><v:tabList/>git merge</text>		</g>
	</g>
</svg>
