<svg width="650" height="480" xmlns="http://www.w3.org/2000/svg" class="st12">
 <style type="text/css">
  <![CDATA[
		.st1 {visibility:visible}
		.st2 {fill:#5b9bd5;fill-opacity:0.22;filter:url(#filter_2);stroke:#5b9bd5;stroke-opacity:0.22}
		.st3 {fill:#d8d8d8;stroke:#c7c8c8;stroke-width:0.25}
		.st4 {fill:#000000;font-family:Calibri;font-size:1.00001em}
		.st5 {font-size:1em}
		.st6 {fill:none;stroke:none;stroke-width:0.25}
		.st7 {fill:#000000;font-family:Calibri;font-size:1.16666em}
		.st8 {fill:#7effff;stroke:#c7c8c8;stroke-width:0.25}
		.st9 {fill:#fee599;stroke:#c7c8c8;stroke-width:0.25}
		.st10 {marker-end:url(#mrkr4-79);stroke:#5b9bd5;stroke-linecap:round;stroke-linejoin:round;stroke-width:1}
		.st11 {fill:#5b9bd5;fill-opacity:1;stroke:#5b9bd5;stroke-opacity:1;stroke-width:0.28409090909091}
		.st12 {fill:none;fill-rule:evenodd;font-size:12px;overflow:visible;stroke-linecap:square;stroke-miterlimit:3}
	]]>
 </style>
 <defs>
  <g id="lend4">
   <path id="svg_1" d="m3,2l-2,-1l2,-1l0,2"/>
  </g>
 </defs>

 <g>
  <title>页-1</title>
  <g id="shape1-1">
   <title transform="translate(1,1) translate(32.822200775146484,-296.2200012207031) ">矩形</title>
   <desc transform="translate(1,1) translate(32.822200775146484,-296.2200012207031) ">Commit size Tree 92ec2 Author Scott Committer Scott The initi...</desc>
   <g class="st1" transform="matrix(1,0,0,1,0.345598,1.97279) " id="shadow1-2">
    <rect id="svg_3" class="st2" height="102.047" width="165.827" y="198.007999" x="33.822201"/>
   </g>
   <rect id="svg_4" class="st3" height="102.047" width="165.827" y="198.007999" x="33.822201"/>
   <text id="svg_5" class="st4" y="223.829999" x="37.822201">Commit
    <tspan id="svg_6" class="st5" dx="3.864em">size</tspan>
    <tspan id="svg_7" class="st5" dy="1.2em" x="37.822201">Tree</tspan>
    <tspan id="svg_8" class="st5" dx="5.255em">92</tspan>ec2
    <tspan id="svg_9" class="st5" dy="1.2em" x="37.822201">Author</tspan>
    <tspan id="svg_10" class="st5" dx="4.246em">Scott</tspan>
    <tspan id="svg_11" class="st5" dy="1.2em" x="37.822201">Committer</tspan>
    <tspan id="svg_12" class="st5" dx="2.683em">Scott</tspan>
    <tspan id="svg_13" class="st5" dy="1.2em" x="37.822201">The initial commit of my project</tspan></text>
  </g>
  <g id="shape2-15">
   <title transform="translate(1,1) translate(39.735599517822266,-398.26800537109375) ">工作表.2</title>
   <desc transform="translate(1,1) translate(39.735599517822266,-398.26800537109375) ">98ca9</desc>
   <rect id="svg_14" class="st6" height="20" width="152" y="178.007995" x="40.7356"/>
   <text id="svg_15" class="st7" y="192.211995" x="99.7756">98ca9</text>
  </g>
  <g id="shape13-18">
   <title transform="translate(1,1) translate(247.5469970703125,-294.7239990234375) ">矩形.13</title>
   <desc transform="translate(1,1) translate(247.5469970703125,-294.7239990234375) ">Tree size Blob 5b1d3 README Blob 911e7 LICENSE Blob cba0a tes...</desc>
   <g class="st1" transform="matrix(1,0,0,1,0.345598,1.97279) " id="shadow13-19">
    <rect id="svg_16" class="st2" height="102.047" width="165.827" y="199.504001" x="248.546997"/>
   </g>
   <rect id="svg_17" class="st8" height="102.047" width="165.827" y="199.504001" x="248.546997"/>
   <text id="svg_18" class="st4" y="232.526001" x="252.546997">Tree
    <tspan id="svg_19" class="st5" dx="1.712em">size</tspan>
    <tspan id="svg_20" class="st5" dy="1.2em" x="252.546997">Blob</tspan>
    <tspan id="svg_21" class="st5" dx="1.717em">5</tspan>b1d3
    <tspan id="svg_22" class="st5" dx="0.972em">README</tspan>
    <tspan id="svg_23" class="st5" dy="1.2em" x="252.546997">Blob</tspan>
    <tspan id="svg_24" class="st5" dx="1.717em">911</tspan>e7
    <tspan id="svg_25" class="st5" dx="1.018em">LICENSE</tspan>
    <tspan id="svg_26" class="st5" dy="1.2em" x="252.546997">Blob</tspan>
    <tspan id="svg_27" class="st5" dx="1.717em">cba</tspan>0a
    <tspan id="svg_28" class="st5" dx="1.13em">test</tspan>.rb</text>
  </g>
  <g id="shape14-34">
   <title transform="translate(1,1) translate(254.4600067138672,-396.7720031738281) ">工作表.14</title>
   <desc transform="translate(1,1) translate(254.4600067138672,-396.7720031738281) ">92ec2</desc>
   <rect id="svg_29" class="st6" height="20" width="152" y="179.503997" x="255.460007"/>
   <text id="svg_30" class="st7" y="193.707997" x="314.370007">92ec2</text>
  </g>
  <g id="shape15-37">
   <title transform="translate(1,1) translate(467.7170104980469,-437.9469909667969) ">矩形.15</title>
   <desc transform="translate(1,1) translate(467.7170104980469,-437.9469909667969) ">Blob size == Testing library This library is used to test Rub...</desc>
   <g class="st1" transform="matrix(1,0,0,1,0.345598,1.97279) " id="shadow15-38">
    <rect id="svg_31" class="st2" height="72.289" width="165.827" y="86.040009" x="468.71701"/>
   </g>
   <rect id="svg_32" class="st9" height="72.289" width="165.827" y="86.040009" x="468.71701"/>
   <text id="svg_33" class="st4" y="104.183009" x="472.71701">Blob size
    <tspan id="svg_34" class="st5" dy="1.2em" x="472.71701">==</tspan>Testing library
    <tspan id="svg_35" class="st5" dy="1.2em" x="472.71701">This library is used to test Ruby</tspan>
    <tspan id="svg_36" class="st5" dy="1.2em" x="472.71701">projects</tspan>.</text>
  </g>
  <g id="shape16-46">
   <title transform="translate(1,1) translate(469.1839904785156,-517.3259887695312) ">工作表.16</title>
   <desc transform="translate(1,1) translate(469.1839904785156,-517.3259887695312) ">5b1d3</desc>
   <rect id="svg_37" class="st6" height="14.1677" width="152" y="64.782011" x="470.18399"/>
   <text id="svg_38" class="st7" y="76.064011" x="528.18399">5b1d3</text>
  </g>
  <g id="shape17-49">
   <title transform="translate(1,1) translate(462.27099609375,-309.60400390625) ">矩形.17</title>
   <desc transform="translate(1,1) translate(462.27099609375,-309.60400390625) ">Blob size The MIT License Copyright © 2008 Scott Chacon Permi...</desc>
   <g class="st1" transform="matrix(1,0,0,1,0.345598,1.97279) " id="shadow17-50">
    <rect id="svg_39" class="st2" height="72.289" width="165.827" y="214.382996" x="463.270996"/>
   </g>
   <rect id="svg_40" class="st9" height="72.289" width="165.827" y="214.382996" x="463.270996"/>
   <text id="svg_41" class="st4" y="225.325996" x="467.270996">Blob size
    <tspan id="svg_42" class="st5" dy="1.2em" x="467.270996">The MIT License</tspan>
    <tspan id="svg_43" class="st5" dy="1.2em" x="467.270996">Copyright ©</tspan>2008 Scott Chacon
    <tspan id="svg_44" class="st5" dy="1.2em" x="467.270996">Permission is hereby granted</tspan>.
    <tspan id="svg_45" class="st5" dy="1.2em" x="467.270996">Free of charge</tspan>, to any person.</text>
  </g>
  <g id="shape18-59">
   <title transform="translate(1,1) translate(469.1839904785156,-389.7669982910156) ">工作表.18</title>
   <desc transform="translate(1,1) translate(469.1839904785156,-389.7669982910156) ">211e7</desc>
   <rect id="svg_46" class="st6" height="14.1677" width="152" y="192.341002" x="470.18399"/>
   <text id="svg_47" class="st7" y="203.623002" x="528.51399">211e7</text>
  </g>
  <g id="shape19-62">
   <title transform="translate(1,1) translate(467.7170104980469,-184.2519989013672) ">矩形.19</title>
   <desc transform="translate(1,1) translate(467.7170104980469,-184.2519989013672) ">Blob size == Testing library This library is used to test Rub...</desc>
   <g class="st1" transform="matrix(1,0,0,1,0.345598,1.97279) " id="shadow19-63">
    <rect id="svg_48" class="st2" height="72.289" width="165.827" y="339.735001" x="468.71701"/>
   </g>
   <rect id="svg_49" class="st9" height="72.289" width="165.827" y="339.735001" x="468.71701"/>
   <text id="svg_50" class="st4" y="357.878001" x="472.71701">Blob size
    <tspan id="svg_51" class="st5" dy="1.2em" x="472.71701">==</tspan>Testing library
    <tspan id="svg_52" class="st5" dy="1.2em" x="472.71701">This library is used to test Ruby</tspan>
    <tspan id="svg_53" class="st5" dy="1.2em" x="472.71701">projects</tspan>.</text>
  </g>
  <g id="shape20-71">
   <title transform="translate(1,1) translate(467.7170104980469,-262.2070007324219) ">工作表.20</title>
   <desc transform="translate(1,1) translate(467.7170104980469,-262.2070007324219) ">cba9a</desc>
   <rect id="svg_54" class="st6" height="14.1677" width="152" y="319.900999" x="468.71701"/>
   <text id="svg_55" class="st7" y="331.182999" x="527.82701">cba9a</text>
  </g>
  <g id="shape21-74">
   <title transform="translate(1,1) translate(198.6490020751953,-353.5830078125) ">动态连接线</title>
   <path id="svg_56" class="st10" d="m199.649002,249.026992l10.63,0l0,1.5l31.23,0"/>
  </g>
  <g id="shape22-80">
   <title transform="translate(1,1) translate(413.37298583984375,-338.6610107421875) ">动态连接线.22</title>
   <path id="svg_57" class="st10" d="m414.372986,250.528989l41.86,0"/>
  </g>
  <g id="shape23-85">
   <title transform="translate(1,1) translate(385.0270080566406,-396.7720031738281) ">动态连接线.23</title>
   <path id="svg_58" class="st10" d="m386.027008,199.507997l77.55,-72.52"/>
  </g>
  <g id="shape24-90">
   <title transform="translate(1,1) translate(386.3290100097656,-294.7239990234375) ">动态连接线.24</title>
   <path id="svg_59" class="st10" d="m387.32901,301.556001l76.19,69.58"/>
  </g>
 </g>
 <g>
  <title>background</title>
  <rect fill="none" id="canvas_background" height="482" width="652" y="-1" x="-1"/>
 </g>
</svg>