<svg width="841.89" height="410" xmlns="http://www.w3.org/2000/svg" class="st19">
 <style type="text/css">
  <![CDATA[
		.st1 {visibility:visible}
		.st2 {fill:#5b9bd5;fill-opacity:0.22;filter:url(#filter_2);stroke:#5b9bd5;stroke-opacity:0.22}
		.st3 {fill:#f4b183;stroke:#c7c8c8;stroke-width:0.25}
		.st4 {fill:#000000;font-family:Calibri;font-size:1.00001em;font-weight:bold}
		.st5 {fill:#fec000;stroke:#c7c8c8;stroke-width:0.25}
		.st6 {font-size:1em}
		.st7 {fill:#cbffff;stroke:#c7c8c8;stroke-width:0.25}
		.st8 {fill:#ffffff;stroke:#c7c8c8;stroke-width:0.25}
		.st9 {font-family:黑体;font-size:1em}
		.st10 {marker-end:url(#mrkr4-84);stroke:#5b9bd5;stroke-linecap:round;stroke-linejoin:round;stroke-width:1}
		.st11 {fill:#5b9bd5;fill-opacity:1;stroke:#5b9bd5;stroke-opacity:1;stroke-width:0.28409090909091}
		.st12 {marker-end:url(#mrkr4-120);stroke:#000000;stroke-linecap:round;stroke-linejoin:round;stroke-width:1.25}
		.st13 {fill:#000000;fill-opacity:1;stroke:#000000;stroke-opacity:1;stroke-width:0.3315649867374}
		.st14 {fill:#ffffff;stroke:none;stroke-linecap:butt;stroke-width:7.2}
		.st15 {fill:#4f87bb;font-family:Calibri;font-size:1.00001em}
		.st16 {marker-end:url(#mrkr4-128);stroke:#000000;stroke-linecap:round;stroke-linejoin:round;stroke-width:1}
		.st17 {fill:#000000;fill-opacity:1;stroke:#000000;stroke-opacity:1;stroke-width:0.28409090909091}
		.st18 {fill:#ffffff;stroke:none;stroke-linecap:butt}
		.st19 {fill:none;fill-rule:evenodd;font-size:12px;overflow:visible;stroke-linecap:square;stroke-miterlimit:3}
	]]>
 </style>
 <defs>
  <g id="lend4">
   <path id="svg_1" d="m2,1l-2,-1l2,-1l0,2"/>
  </g>
 </defs>

 <g>
  <title>页-1</title>
  <g id="shape1-1">
   <title transform="translate(68.03150177001953,-496.06298828125) ">圆角矩形</title>
   <desc transform="translate(68.03150177001953,-496.06298828125) ">refs/heads/master</desc>
   <g class="st1" transform="matrix(1,0,0,1,0.345598,1.97279) " id="shadow1-2">
    <path id="svg_5" class="st2" d="m83.901502,99.217012l127,0a15.8738,15.8738 -180 0 0 15.87,-15.88l0,-16.44a15.8738,15.8738 -180 0 0 -15.87,-15.87l-127,0a15.8738,15.8738 -180 0 0 -15.87,15.87l0,16.44a15.8738,15.8738 -180 0 0 15.87,15.88z"/>
   </g>
   <path id="svg_6" class="st3" d="m83.901502,99.217012l127,0a15.8738,15.8738 -180 0 0 15.87,-15.88l0,-16.44a15.8738,15.8738 -180 0 0 -15.87,-15.87l-127,0a15.8738,15.8738 -180 0 0 -15.87,15.87l0,16.44a15.8738,15.8738 -180 0 0 15.87,15.88z"/>
   <text id="svg_7" class="st4" y="78.717012" x="100.511502">refs/heads/master</text>
  </g>
  <g id="shape2-7">
   <title transform="translate(68.03150177001953,-382.677001953125) ">圆角矩形.2</title>
   <desc transform="translate(68.03150177001953,-382.677001953125) ">refs/heads/test</desc>
   <g class="st1" transform="matrix(1,0,0,1,0.345598,1.97279) " id="shadow2-8">
    <path id="svg_8" class="st2" d="m83.901502,212.602998l127,0a15.8738,15.8738 -180 0 0 15.87,-15.88l0,-16.44a15.8738,15.8738 -180 0 0 -15.87,-15.87l-127,0a15.8738,15.8738 -180 0 0 -15.87,15.87l0,16.44a15.8738,15.8738 -180 0 0 15.87,15.88z"/>
   </g>
   <path id="svg_9" class="st3" d="m83.901502,212.602998l127,0a15.8738,15.8738 -180 0 0 15.87,-15.88l0,-16.44a15.8738,15.8738 -180 0 0 -15.87,-15.87l-127,0a15.8738,15.8738 -180 0 0 -15.87,15.87l0,16.44a15.8738,15.8738 -180 0 0 15.87,15.88z"/>
   <text id="svg_10" class="st4" y="192.102998" x="108.411502">refs/heads/test</text>
  </g>
  <g id="shape3-13">
   <title transform="translate(274.96099853515625,-496.06298828125) ">圆角矩形.3</title>
   <desc transform="translate(274.96099853515625,-496.06298828125) ">1a418c Third commit</desc>
   <g class="st1" transform="matrix(1,0,0,1,0.345598,1.97279) " id="shadow3-14">
    <path id="svg_11" class="st2" d="m284.310999,99.217012l74.84,0a9.35418,9.35418 -180 0 0 9.35,-9.36l0,-29.48a9.35418,9.35418 -180 0 0 -9.35,-9.35l-74.84,0a9.35418,9.35418 -180 0 0 -9.35,9.35l0,29.48a9.35418,9.35418 -180 0 0 9.35,9.36z"/>
   </g>
   <path id="svg_12" class="st5" d="m284.310999,99.217012l74.84,0a9.35418,9.35418 -180 0 0 9.35,-9.36l0,-29.48a9.35418,9.35418 -180 0 0 -9.35,-9.35l-74.84,0a9.35418,9.35418 -180 0 0 -9.35,9.35l0,29.48a9.35418,9.35418 -180 0 0 9.35,9.36z"/>
   <text id="svg_13" class="st4" y="71.517012" x="304.090999">1a418c
    <tspan id="svg_14" class="st6" dy="1.2em" x="288.310999">Third commit</tspan></text>
  </g>
  <g id="shape7-20">
   <title transform="translate(274.96099853515625,-382.677001953125) ">圆角矩形.7</title>
   <desc transform="translate(274.96099853515625,-382.677001953125) ">Cac0ca Second commit</desc>
   <g class="st1" transform="matrix(1,0,0,1,0.345598,1.97279) " id="shadow7-21">
    <path id="svg_15" class="st2" d="m284.310999,212.602998l74.84,0a9.35418,9.35418 -180 0 0 9.35,-9.36l0,-29.48a9.35418,9.35418 -180 0 0 -9.35,-9.35l-74.84,0a9.35418,9.35418 -180 0 0 -9.35,9.35l0,29.48a9.35418,9.35418 -180 0 0 9.35,9.36z"/>
   </g>
   <path id="svg_16" class="st5" d="m284.310999,212.602998l74.84,0a9.35418,9.35418 -180 0 0 9.35,-9.36l0,-29.48a9.35418,9.35418 -180 0 0 -9.35,-9.35l-74.84,0a9.35418,9.35418 -180 0 0 -9.35,9.35l0,29.48a9.35418,9.35418 -180 0 0 9.35,9.36z"/>
   <text id="svg_17" class="st4" y="184.902998" x="304.570999">Cac0ca
    <tspan id="svg_18" class="st6" dy="1.2em" x="283.290999">Second commit</tspan></text>
  </g>
  <g id="shape8-27">
   <title transform="translate(274.96099853515625,-269.2909851074219) ">圆角矩形.8</title>
   <desc transform="translate(274.96099853515625,-269.2909851074219) ">Fdf4fc First commit</desc>
   <g class="st1" transform="matrix(1,0,0,1,0.345598,1.97279) " id="shadow8-28">
    <path id="svg_19" class="st2" d="m284.310999,325.989015l74.84,0a9.35418,9.35418 -180 0 0 9.35,-9.36l0,-29.48a9.35418,9.35418 -180 0 0 -9.35,-9.35l-74.84,0a9.35418,9.35418 -180 0 0 -9.35,9.35l0,29.48a9.35418,9.35418 -180 0 0 9.35,9.36z"/>
   </g>
   <path id="svg_20" class="st5" d="m284.310999,325.989015l74.84,0a9.35418,9.35418 -180 0 0 9.35,-9.36l0,-29.48a9.35418,9.35418 -180 0 0 -9.35,-9.35l-74.84,0a9.35418,9.35418 -180 0 0 -9.35,9.35l0,29.48a9.35418,9.35418 -180 0 0 9.35,9.36z"/>
   <text id="svg_21" class="st4" y="298.289015" x="306.410999">Fdf4fc
    <tspan id="svg_22" class="st6" dy="1.2em" x="290.490999">First commit</tspan></text>
  </g>
  <g id="shape9-34">
   <title transform="translate(416.6929931640625,-496.06298828125) ">圆角矩形.9</title>
   <desc transform="translate(416.6929931640625,-496.06298828125) ">3c4e9c tree</desc>
   <g class="st1" transform="matrix(1,0,0,1,0.345598,1.97279) " id="shadow9-35">
    <path id="svg_23" class="st2" d="m426.042993,99.217012l74.84,0a9.35418,9.35418 -180 0 0 9.35,-9.36l0,-29.48a9.35418,9.35418 -180 0 0 -9.35,-9.35l-74.84,0a9.35418,9.35418 -180 0 0 -9.35,9.35l0,29.48a9.35418,9.35418 -180 0 0 9.35,9.36z"/>
   </g>
   <path id="svg_24" class="st7" d="m426.042993,99.217012l74.84,0a9.35418,9.35418 -180 0 0 9.35,-9.36l0,-29.48a9.35418,9.35418 -180 0 0 -9.35,-9.35l-74.84,0a9.35418,9.35418 -180 0 0 -9.35,9.35l0,29.48a9.35418,9.35418 -180 0 0 9.35,9.36z"/>
   <text id="svg_25" class="st4" y="71.517012" x="446.302993">3c4e9c
    <tspan id="svg_26" class="st6" dy="1.2em" x="453.212993">tree</tspan></text>
  </g>
  <g id="shape10-41">
   <title transform="translate(416.6929931640625,-382.677001953125) ">圆角矩形.10</title>
   <desc transform="translate(416.6929931640625,-382.677001953125) ">0155eb tree</desc>
   <g class="st1" transform="matrix(1,0,0,1,0.345598,1.97279) " id="shadow10-42">
    <path id="svg_27" class="st2" d="m426.042993,212.602998l74.84,0a9.35418,9.35418 -180 0 0 9.35,-9.36l0,-29.48a9.35418,9.35418 -180 0 0 -9.35,-9.35l-74.84,0a9.35418,9.35418 -180 0 0 -9.35,9.35l0,29.48a9.35418,9.35418 -180 0 0 9.35,9.36z"/>
   </g>
   <path id="svg_28" class="st7" d="m426.042993,212.602998l74.84,0a9.35418,9.35418 -180 0 0 9.35,-9.36l0,-29.48a9.35418,9.35418 -180 0 0 -9.35,-9.35l-74.84,0a9.35418,9.35418 -180 0 0 -9.35,9.35l0,29.48a9.35418,9.35418 -180 0 0 9.35,9.36z"/>
   <text id="svg_29" class="st4" y="184.902998" x="445.062993">0155eb
    <tspan id="svg_30" class="st6" dy="1.2em" x="453.212993">tree</tspan></text>
  </g>
  <g id="shape11-48">
   <title transform="translate(416.6929931640625,-269.2909851074219) ">圆角矩形.11</title>
   <desc transform="translate(416.6929931640625,-269.2909851074219) ">D0329f tree</desc>
   <g class="st1" transform="matrix(1,0,0,1,0.345598,1.97279) " id="shadow11-49">
    <path id="svg_31" class="st2" d="m426.042993,325.989015l74.84,0a9.35418,9.35418 -180 0 0 9.35,-9.36l0,-29.48a9.35418,9.35418 -180 0 0 -9.35,-9.35l-74.84,0a9.35418,9.35418 -180 0 0 -9.35,9.35l0,29.48a9.35418,9.35418 -180 0 0 9.35,9.36z"/>
   </g>
   <path id="svg_32" class="st7" d="m426.042993,325.989015l74.84,0a9.35418,9.35418 -180 0 0 9.35,-9.36l0,-29.48a9.35418,9.35418 -180 0 0 -9.35,-9.35l-74.84,0a9.35418,9.35418 -180 0 0 -9.35,9.35l0,29.48a9.35418,9.35418 -180 0 0 9.35,9.36z"/>
   <text id="svg_33" class="st4" y="298.289015" x="445.622993">D0329f
    <tspan id="svg_34" class="st6" dy="1.2em" x="453.212993">tree</tspan></text>
  </g>
  <g id="shape12-55">
   <title transform="translate(615.1179809570312,-425.1969909667969) ">圆角矩形.12</title>
   <desc transform="translate(615.1179809570312,-425.1969909667969) ">1f7a7a “version 2”</desc>
   <g class="st1" transform="matrix(1,0,0,1,0.345598,1.97279) " id="shadow12-56">
    <path id="svg_35" class="st2" d="m624.467981,170.083009l74.84,0a9.35418,9.35418 -180 0 0 9.35,-9.36l0,-29.48a9.35418,9.35418 -180 0 0 -9.35,-9.35l-74.84,0a9.35418,9.35418 -180 0 0 -9.35,9.35l0,29.48a9.35418,9.35418 -180 0 0 9.35,9.36z"/>
   </g>
   <path id="svg_36" class="st8" d="m624.467981,170.083009l74.84,0a9.35418,9.35418 -180 0 0 9.35,-9.36l0,-29.48a9.35418,9.35418 -180 0 0 -9.35,-9.35l-74.84,0a9.35418,9.35418 -180 0 0 -9.35,9.35l0,29.48a9.35418,9.35418 -180 0 0 9.35,9.36z"/>
   <text id="svg_37" class="st4" y="141.593009" x="644.947981">1f7a7a
    <tspan id="svg_38" class="st9" dy="1.298em" x="627.137981">“</tspan>version 2
    <tspan id="svg_39" class="st9">”</tspan></text>
  </g>
  <g id="shape13-63">
   <title transform="translate(615.1179809570312,-354.33099365234375) ">圆角矩形.13</title>
   <desc transform="translate(615.1179809570312,-354.33099365234375) ">Fa49b0 “new file”</desc>
   <g class="st1" transform="matrix(1,0,0,1,0.345598,1.97279) " id="shadow13-64">
    <path id="svg_40" class="st2" d="m624.467981,240.949006l74.84,0a9.35418,9.35418 -180 0 0 9.35,-9.36l0,-29.48a9.35418,9.35418 -180 0 0 -9.35,-9.35l-74.84,0a9.35418,9.35418 -180 0 0 -9.35,9.35l0,29.48a9.35418,9.35418 -180 0 0 9.35,9.36z"/>
   </g>
   <path id="svg_41" class="st8" d="m624.467981,240.949006l74.84,0a9.35418,9.35418 -180 0 0 9.35,-9.36l0,-29.48a9.35418,9.35418 -180 0 0 -9.35,-9.35l-74.84,0a9.35418,9.35418 -180 0 0 -9.35,9.35l0,29.48a9.35418,9.35418 -180 0 0 9.35,9.36z"/>
   <text id="svg_42" class="st4" y="212.459006" x="643.827981">Fa49b0
    <tspan id="svg_43" class="st9" dy="1.298em" x="629.907981">“</tspan>new file
    <tspan id="svg_44" class="st9">”</tspan></text>
  </g>
  <g id="shape14-71">
   <title transform="translate(615.1179809570312,-269.2909851074219) ">圆角矩形.14</title>
   <desc transform="translate(615.1179809570312,-269.2909851074219) ">83baae “version 1”</desc>
   <g class="st1" transform="matrix(1,0,0,1,0.345598,1.97279) " id="shadow14-72">
    <path id="svg_45" class="st2" d="m624.467981,325.989015l74.84,0a9.35418,9.35418 -180 0 0 9.35,-9.36l0,-29.48a9.35418,9.35418 -180 0 0 -9.35,-9.35l-74.84,0a9.35418,9.35418 -180 0 0 -9.35,9.35l0,29.48a9.35418,9.35418 -180 0 0 9.35,9.36z"/>
   </g>
   <path id="svg_46" class="st8" d="m624.467981,325.989015l74.84,0a9.35418,9.35418 -180 0 0 9.35,-9.36l0,-29.48a9.35418,9.35418 -180 0 0 -9.35,-9.35l-74.84,0a9.35418,9.35418 -180 0 0 -9.35,9.35l0,29.48a9.35418,9.35418 -180 0 0 9.35,9.36z"/>
   <text id="svg_47" class="st4" y="297.499015" x="643.647981">83baae
    <tspan id="svg_48" class="st9" dy="1.298em" x="627.137981">“</tspan>version 1
    <tspan id="svg_49" class="st9">”</tspan></text>
  </g>
  <g id="shape15-79">
   <title transform="translate(226.77200317382812,-513.0709838867188) ">动态连接线</title>
   <path id="svg_50" class="st10" d="m226.772003,75.119016l41.15,0"/>
  </g>
  <g id="shape16-85">
   <title transform="translate(226.77200317382812,-399.68499755859375) ">动态连接线.16</title>
   <path id="svg_51" class="st10" d="m226.772003,188.505002l41.15,0"/>
  </g>
  <g id="shape17-90">
   <title transform="translate(314.64599609375,-496.06298828125) ">动态连接线.17</title>
   <path id="svg_52" class="st10" d="m321.735996,99.217012l0,58.15"/>
  </g>
  <g id="shape18-95">
   <title transform="translate(314.64599609375,-382.677001953125) ">动态连接线.18</title>
   <path id="svg_53" class="st10" d="m321.735996,212.602998l0,58.15"/>
  </g>
  <g id="shape19-100">
   <title transform="translate(368.5039978027344,-513.0709838867188) ">动态连接线.19</title>
   <path id="svg_54" class="st10" d="m368.503998,75.119016l41.15,0"/>
  </g>
  <g id="shape20-105">
   <title transform="translate(368.5039978027344,-399.68499755859375) ">动态连接线.20</title>
   <path id="svg_55" class="st10" d="m368.503998,188.505002l41.15,0"/>
  </g>
  <g id="shape21-110">
   <title transform="translate(368.5039978027344,-286.29901123046875) ">动态连接线.21</title>
   <path id="svg_56" class="st10" d="m368.503998,301.890989l41.15,0"/>
  </g>
  <g id="shape22-115">
   <title transform="translate(510.2359924316406,-520.156982421875) ">动态连接线.22</title>
   <desc transform="translate(510.2359924316406,-520.156982421875) ">Test.txt</desc>
   <path id="svg_57" class="st12" d="m510.235992,75.123018l100.77,46.36"/>
   <rect id="svg_58" class="st14" height="14.4001" width="36.7973" y="92.675018" x="545.648192"/>
   <text id="svg_59" class="st15" y="103.473018" x="545.645992">Test.txt</text>
  </g>
  <g id="shape23-123">
   <title transform="translate(510.2359924316406,-406.7720031738281) ">动态连接线.23</title>
   <desc transform="translate(510.2359924316406,-406.7720031738281) ">Test.txt</desc>
   <path id="svg_60" class="st16" d="m510.235992,188.507997l100.71,-19.81"/>
   <rect id="svg_61" class="st14" height="14.4001" width="36.7973" y="170.720997" x="545.648192"/>
   <text id="svg_62" class="st15" y="181.517997" x="545.645992">Test.txt</text>
  </g>
  <g id="shape24-131">
   <title transform="translate(510.2359924316406,-406.7720031738281) ">动态连接线.24</title>
   <desc transform="translate(510.2359924316406,-406.7720031738281) ">New.txt</desc>
   <path id="svg_63" class="st16" d="m510.235992,188.507997l98.09,26.51"/>
   <rect id="svg_64" class="st14" height="14.4001" width="38.5609" y="195.476997" x="543.396592"/>
   <text id="svg_65" class="st15" y="206.277997" x="543.395992">New.txt</text>
  </g>
  <g id="shape25-138">
   <title transform="translate(510.2359924316406,-520.156982421875) ">动态连接线.25</title>
   <desc transform="translate(510.2359924316406,-520.156982421875) ">New.txt</desc>
   <path id="svg_66" class="st10" d="m510.235992,75.123018l226.77,0l0,141.73l-21.3,0"/>
   <rect id="svg_67" class="st14" height="14.4001" width="38.5609" y="67.919018" x="689.380992"/>
   <text id="svg_68" class="st15" y="78.723018" x="689.375992">New.txt</text>
  </g>
  <g id="shape26-145">
   <title transform="translate(507.4960021972656,-541.5120239257812) ">动态连接线.26</title>
   <desc transform="translate(507.4960021972656,-541.5120239257812) ">Bak</desc>
   <path id="svg_69" class="st16" d="m507.496002,53.767976l264.94,0l0,282.85l-308.97,0l0,-3.59"/>
   <rect id="svg_70" class="st14" height="14.4001" width="17.7306" y="215.319976" x="763.575002"/>
   <text id="svg_71" class="st15" y="226.117976" x="763.576002">Bak</text>
  </g>
  <g id="shape27-152">
   <title transform="translate(510.2359924316406,-286.29901123046875) ">动态连接线.27</title>
   <desc transform="translate(510.2359924316406,-286.29901123046875) ">Test.txt</desc>
   <path id="svg_72" class="st16" d="m510.235992,301.890989l97.84,0"/>
   <rect id="svg_73" class="st18" height="14.4001" width="36.7973" y="294.689989" x="544.278192"/>
   <text id="svg_74" class="st15" y="305.490989" x="544.275992">Test.txt</text>
  </g>
 </g>
 <g>
  <title>background</title>
  <rect fill="none" id="canvas_background" height="412" width="843.89" y="-1" x="-1"/>
 </g>
</svg>