<svg width="750" height="450" xmlns="http://www.w3.org/2000/svg" class="st16">
 <style type="text/css">
  <![CDATA[
		.st1 {visibility:visible}
		.st2 {fill:none;filter:url(#filter_2);stroke:#5b9bd5;stroke-opacity:0.22}
		.st3 {fill:#5b9bd5;filter:url(#filter_2);font-family:Calibri;font-size:1.5em;font-weight:bold;opacity:0.219608}
		.st4 {fill:none;stroke:#000000;stroke-width:6}
		.st5 {fill:#000000;font-family:Calibri;font-size:1.5em;font-weight:bold}
		.st6 {fill:#5b9bd5;fill-opacity:0.22;filter:url(#filter_2);stroke:#5b9bd5;stroke-opacity:0.22}
		.st7 {fill:#ffffff;stroke:#c7c8c8;stroke-width:0.25}
		.st8 {fill:#000000;font-family:Calibri;font-size:1.00001em;font-weight:bold}
		.st9 {fill:#f7cbac;stroke:#4f87bb;stroke-width:0.75}
		.st10 {fill:#4f87bb;font-family:Calibri;font-size:0.833336em}
		.st11 {marker-end:url(#mrkr4-47);stroke:#5b9bd5;stroke-linecap:round;stroke-linejoin:round;stroke-width:1}
		.st12 {fill:#5b9bd5;fill-opacity:1;stroke:#5b9bd5;stroke-opacity:1;stroke-width:0.28409090909091}
		.st13 {fill:none;stroke:none;stroke-width:0.25}
		.st14 {fill:#5b9bd5;font-family:Calibri;font-size:1.00001em}
		.st15 {fill:none;stroke:#002060;stroke-width:6}
		.st16 {fill:none;fill-rule:evenodd;font-size:12px;overflow:visible;stroke-linecap:square;stroke-miterlimit:3}
	]]>
 </style>
 <defs>
  <g id="lend4">
   <path id="svg_1" d="m2,1l-2,-1l2,-1l0,2"/>
  </g>
 </defs>

 <g>
  <title>页-1</title>
  <g id="shape30-1">
   <title transform="translate(41.81100082397461,-419.52801513671875) ">矩形</title>
   <desc transform="translate(41.81100082397461,-419.52801513671875) ">git.ourcompany.com</desc>
   <g class="st1" transform="matrix(1,0,0,1,0.345598,1.97279) " id="shadow30-2">
    <rect id="svg_3" class="st2" height="133.228" width="661.181" y="42.518985" x="41.811001"/>
    <text id="svg_4" class="st3" y="62.721985" x="294.911001">git.ourcompany.com</text>
   </g>
   <rect id="svg_5" class="st4" height="133.228" width="661.181" y="42.518985" x="41.811001"/>
   <text id="svg_6" class="st5" y="62.721985" x="294.911001">git.ourcompany.com</text>
  </g>
  <g id="shape25-9">
   <title transform="translate(76.535400390625,-448.3890075683594) ">圆角矩形.25</title>
   <desc transform="translate(76.535400390625,-448.3890075683594) ">0b743</desc>
   <g class="st1" transform="matrix(1,0,0,1,0.345598,1.97279) " id="shadow25-10">
    <path id="svg_7" class="st6" d="m85.8854,146.890992l74.84,0a9.35418,9.35418 -180 0 0 9.35,-9.36l0,-9.64a9.35418,9.35418 -180 0 0 -9.35,-9.35l-74.84,0a9.35418,9.35418 -180 0 0 -9.35,9.35l0,9.64a9.35418,9.35418 -180 0 0 9.35,9.36z"/>
   </g>
   <path id="svg_8" class="st7" d="m85.8854,146.890992l74.84,0a9.35418,9.35418 -180 0 0 9.35,-9.36l0,-9.64a9.35418,9.35418 -180 0 0 -9.35,-9.35l-74.84,0a9.35418,9.35418 -180 0 0 -9.35,9.35l0,9.64a9.35418,9.35418 -180 0 0 9.35,9.36z"/>
   <text id="svg_9" class="st8" y="136.310992" x="107.9254">0b743</text>
  </g>
  <g id="shape26-15">
   <title transform="translate(191.33900451660156,-448.3890075683594) ">圆角矩形.26</title>
   <desc transform="translate(191.33900451660156,-448.3890075683594) ">0b743</desc>
   <g class="st1" transform="matrix(1,0,0,1,0.345598,1.97279) " id="shadow26-16">
    <path id="svg_10" class="st6" d="m200.689005,146.890992l74.84,0a9.35418,9.35418 -180 0 0 9.35,-9.36l0,-9.64a9.35418,9.35418 -180 0 0 -9.35,-9.35l-74.84,0a9.35418,9.35418 -180 0 0 -9.35,9.35l0,9.64a9.35418,9.35418 -180 0 0 9.35,9.36z"/>
   </g>
   <path id="svg_11" class="st7" d="m200.689005,146.890992l74.84,0a9.35418,9.35418 -180 0 0 9.35,-9.36l0,-9.64a9.35418,9.35418 -180 0 0 -9.35,-9.35l-74.84,0a9.35418,9.35418 -180 0 0 -9.35,9.35l0,9.64a9.35418,9.35418 -180 0 0 9.35,9.36z"/>
   <text id="svg_12" class="st8" y="136.310992" x="222.729005">0b743</text>
  </g>
  <g id="shape27-21">
   <title transform="translate(306.1419982910156,-448.3890075683594) ">圆角矩形.27</title>
   <desc transform="translate(306.1419982910156,-448.3890075683594) ">0b743</desc>
   <g class="st1" transform="matrix(1,0,0,1,0.345598,1.97279) " id="shadow27-22">
    <path id="svg_13" class="st6" d="m315.491998,146.890992l74.84,0a9.35418,9.35418 -180 0 0 9.35,-9.36l0,-9.64a9.35418,9.35418 -180 0 0 -9.35,-9.35l-74.84,0a9.35418,9.35418 -180 0 0 -9.35,9.35l0,9.64a9.35418,9.35418 -180 0 0 9.35,9.36z"/>
   </g>
   <path id="svg_14" class="st7" d="m315.491998,146.890992l74.84,0a9.35418,9.35418 -180 0 0 9.35,-9.36l0,-9.64a9.35418,9.35418 -180 0 0 -9.35,-9.35l-74.84,0a9.35418,9.35418 -180 0 0 -9.35,9.35l0,9.64a9.35418,9.35418 -180 0 0 9.35,9.36z"/>
   <text id="svg_15" class="st8" y="136.310992" x="337.531998">0b743</text>
  </g>
  <g id="shape28-27">
   <title transform="translate(436.5350036621094,-448.3890075683594) ">圆角矩形.28</title>
   <desc transform="translate(436.5350036621094,-448.3890075683594) ">0b743</desc>
   <g class="st1" transform="matrix(1,0,0,1,0.345598,1.97279) " id="shadow28-28">
    <path id="svg_16" class="st6" d="m445.885004,146.890992l74.84,0a9.35418,9.35418 -180 0 0 9.35,-9.36l0,-9.64a9.35418,9.35418 -180 0 0 -9.35,-9.35l-74.84,0a9.35418,9.35418 -180 0 0 -9.35,9.35l0,9.64a9.35418,9.35418 -180 0 0 9.35,9.36z"/>
   </g>
   <path id="svg_17" class="st7" d="m445.885004,146.890992l74.84,0a9.35418,9.35418 -180 0 0 9.35,-9.36l0,-9.64a9.35418,9.35418 -180 0 0 -9.35,-9.35l-74.84,0a9.35418,9.35418 -180 0 0 -9.35,9.35l0,9.64a9.35418,9.35418 -180 0 0 9.35,9.36z"/>
   <text id="svg_18" class="st8" y="136.310992" x="467.925004">0b743</text>
  </g>
  <g id="shape29-33">
   <title transform="translate(566.9290161132812,-448.3890075683594) ">圆角矩形.29</title>
   <desc transform="translate(566.9290161132812,-448.3890075683594) ">0b743</desc>
   <g class="st1" transform="matrix(1,0,0,1,0.345598,1.97279) " id="shadow29-34">
    <path id="svg_19" class="st6" d="m576.279016,146.890992l74.84,0a9.35418,9.35418 -180 0 0 9.35,-9.36l0,-9.64a9.35418,9.35418 -180 0 0 -9.35,-9.35l-74.84,0a9.35418,9.35418 -180 0 0 -9.35,9.35l0,9.64a9.35418,9.35418 -180 0 0 9.35,9.36z"/>
   </g>
   <path id="svg_20" class="st7" d="m576.279016,146.890992l74.84,0a9.35418,9.35418 -180 0 0 9.35,-9.36l0,-9.64a9.35418,9.35418 -180 0 0 -9.35,-9.35l-74.84,0a9.35418,9.35418 -180 0 0 -9.35,9.35l0,9.64a9.35418,9.35418 -180 0 0 9.35,9.36z"/>
   <text id="svg_21" class="st8" y="136.310992" x="598.319016">0b743</text>
  </g>
  <g id="shape33-39">
   <title transform="translate(566.9290161132812,-496.06298828125) ">矩形.33</title>
   <desc transform="translate(566.9290161132812,-496.06298828125) ">master</desc>
   <rect id="svg_22" class="st9" height="28.3465" width="93.5433" y="70.866012" x="566.929016"/>
   <text id="svg_23" class="st10" y="88.037012" x="599.449016">master</text>
  </g>
  <g id="shape34-42">
   <title transform="translate(191.33900451660156,-455.47601318359375) ">动态连接线</title>
   <path id="svg_24" class="st11" d="m191.339005,132.713987l-14.22,0"/>
  </g>
  <g id="shape36-48">
   <title transform="translate(436.5350036621094,-455.47601318359375) ">动态连接线.36</title>
   <path id="svg_25" class="st11" d="m436.535004,132.713987l-29.81,0"/>
  </g>
  <g id="shape37-53">
   <title transform="translate(566.9290161132812,-455.47601318359375) ">动态连接线.37</title>
   <path id="svg_26" class="st11" d="m566.929016,132.713987l-29.81,0"/>
  </g>
  <g id="shape38-58">
   <title transform="translate(606.614013671875,-496.06298828125) ">动态连接线.38</title>
   <path id="svg_27" class="st11" d="m613.704014,99.217012l0,12.28"/>
  </g>
  <g id="shape40-63">
   <title transform="translate(306.1419982910156,-455.47601318359375) ">动态连接线.40</title>
   <path id="svg_28" class="st11" d="m306.141998,132.713987l-14.22,0"/>
  </g>
  <g id="shape41-68">
   <title transform="translate(536.8189697265625,-425.1969909667969) ">工作表.41</title>
   <desc transform="translate(536.8189697265625,-425.1969909667969) ">Someone else pushes</desc>
   <rect id="svg_29" class="st13" height="20" width="152" y="150.079009" x="536.81897"/>
   <text id="svg_30" class="st14" y="163.683009" x="560.27897">Someone else pushes</text>
  </g>
  <g id="shape56-71">
   <title transform="translate(42.51969909667969,-205.51199340820312) ">矩形.56</title>
   <desc transform="translate(42.51969909667969,-205.51199340820312) ">My computer</desc>
   <g class="st1" transform="matrix(1,0,0,1,0.345598,1.97279) " id="shadow56-72">
    <rect id="svg_31" class="st2" height="177.165" width="661.181" y="212.598007" x="42.519699"/>
    <text id="svg_32" class="st3" y="232.798007" x="322.509699">My computer</text>
   </g>
   <rect id="svg_33" class="st15" height="177.165" width="661.181" y="212.598007" x="42.519699"/>
   <text id="svg_34" class="st5" y="232.798007" x="322.509699">My computer</text>
  </g>
  <g id="shape57-79">
   <title transform="translate(77.24410247802734,-264.1369934082031) ">圆角矩形.57</title>
   <desc transform="translate(77.24410247802734,-264.1369934082031) ">0b743</desc>
   <g class="st1" transform="matrix(1,0,0,1,0.345598,1.97279) " id="shadow57-80">
    <path id="svg_35" class="st6" d="m86.594102,331.143007l74.84,0a9.35418,9.35418 -180 0 0 9.35,-9.36l0,-9.64a9.35418,9.35418 -180 0 0 -9.35,-9.35l-74.84,0a9.35418,9.35418 -180 0 0 -9.35,9.35l0,9.64a9.35418,9.35418 -180 0 0 9.35,9.36z"/>
   </g>
   <path id="svg_36" class="st7" d="m86.594102,331.143007l74.84,0a9.35418,9.35418 -180 0 0 9.35,-9.36l0,-9.64a9.35418,9.35418 -180 0 0 -9.35,-9.35l-74.84,0a9.35418,9.35418 -180 0 0 -9.35,9.35l0,9.64a9.35418,9.35418 -180 0 0 9.35,9.36z"/>
   <text id="svg_37" class="st8" y="320.563007" x="108.634102">0b743</text>
  </g>
  <g id="shape58-85">
   <title transform="translate(192.0469970703125,-264.1369934082031) ">圆角矩形.58</title>
   <desc transform="translate(192.0469970703125,-264.1369934082031) ">0b743</desc>
   <g class="st1" transform="matrix(1,0,0,1,0.345598,1.97279) " id="shadow58-86">
    <path id="svg_38" class="st6" d="m201.396997,331.143007l74.84,0a9.35418,9.35418 -180 0 0 9.35,-9.36l0,-9.64a9.35418,9.35418 -180 0 0 -9.35,-9.35l-74.84,0a9.35418,9.35418 -180 0 0 -9.35,9.35l0,9.64a9.35418,9.35418 -180 0 0 9.35,9.36z"/>
   </g>
   <path id="svg_39" class="st7" d="m201.396997,331.143007l74.84,0a9.35418,9.35418 -180 0 0 9.35,-9.36l0,-9.64a9.35418,9.35418 -180 0 0 -9.35,-9.35l-74.84,0a9.35418,9.35418 -180 0 0 -9.35,9.35l0,9.64a9.35418,9.35418 -180 0 0 9.35,9.36z"/>
   <text id="svg_40" class="st8" y="320.563007" x="223.436997">0b743</text>
  </g>
  <g id="shape59-91">
   <title transform="translate(306.8500061035156,-264.1369934082031) ">圆角矩形.59</title>
   <desc transform="translate(306.8500061035156,-264.1369934082031) ">0b743</desc>
   <g class="st1" transform="matrix(1,0,0,1,0.345598,1.97279) " id="shadow59-92">
    <path id="svg_41" class="st6" d="m316.200006,331.143007l74.84,0a9.35418,9.35418 -180 0 0 9.35,-9.36l0,-9.64a9.35418,9.35418 -180 0 0 -9.35,-9.35l-74.84,0a9.35418,9.35418 -180 0 0 -9.35,9.35l0,9.64a9.35418,9.35418 -180 0 0 9.35,9.36z"/>
   </g>
   <path id="svg_42" class="st7" d="m316.200006,331.143007l74.84,0a9.35418,9.35418 -180 0 0 9.35,-9.36l0,-9.64a9.35418,9.35418 -180 0 0 -9.35,-9.35l-74.84,0a9.35418,9.35418 -180 0 0 -9.35,9.35l0,9.64a9.35418,9.35418 -180 0 0 9.35,9.36z"/>
   <text id="svg_43" class="st8" y="320.563007" x="338.240006">0b743</text>
  </g>
  <g id="shape60-97">
   <title transform="translate(437.2439880371094,-264.1369934082031) ">圆角矩形.60</title>
   <desc transform="translate(437.2439880371094,-264.1369934082031) ">0b743</desc>
   <g class="st1" transform="matrix(1,0,0,1,0.345598,1.97279) " id="shadow60-98">
    <path id="svg_44" class="st6" d="m446.593988,331.143007l74.84,0a9.35418,9.35418 -180 0 0 9.35,-9.36l0,-9.64a9.35418,9.35418 -180 0 0 -9.35,-9.35l-74.84,0a9.35418,9.35418 -180 0 0 -9.35,9.35l0,9.64a9.35418,9.35418 -180 0 0 9.35,9.36z"/>
   </g>
   <path id="svg_45" class="st7" d="m446.593988,331.143007l74.84,0a9.35418,9.35418 -180 0 0 9.35,-9.36l0,-9.64a9.35418,9.35418 -180 0 0 -9.35,-9.35l-74.84,0a9.35418,9.35418 -180 0 0 -9.35,9.35l0,9.64a9.35418,9.35418 -180 0 0 9.35,9.36z"/>
   <text id="svg_46" class="st8" y="320.563007" x="468.633988">0b743</text>
  </g>
  <g id="shape61-103">
   <title transform="translate(567.6380004882812,-264.1369934082031) ">圆角矩形.61</title>
   <desc transform="translate(567.6380004882812,-264.1369934082031) ">0b743</desc>
   <g class="st1" transform="matrix(1,0,0,1,0.345598,1.97279) " id="shadow61-104">
    <path id="svg_47" class="st6" d="m576.988,331.143007l74.84,0a9.35418,9.35418 -180 0 0 9.35,-9.36l0,-9.64a9.35418,9.35418 -180 0 0 -9.35,-9.35l-74.84,0a9.35418,9.35418 -180 0 0 -9.35,9.35l0,9.64a9.35418,9.35418 -180 0 0 9.35,9.36z"/>
   </g>
   <path id="svg_48" class="st7" d="m576.988,331.143007l74.84,0a9.35418,9.35418 -180 0 0 9.35,-9.36l0,-9.64a9.35418,9.35418 -180 0 0 -9.35,-9.35l-74.84,0a9.35418,9.35418 -180 0 0 -9.35,9.35l0,9.64a9.35418,9.35418 -180 0 0 9.35,9.36z"/>
   <text id="svg_49" class="st8" y="320.563007" x="599.028">0b743</text>
  </g>
  <g id="shape63-109">
   <title transform="translate(192.0469970703125,-271.2239990234375) ">动态连接线.63</title>
   <path id="svg_50" class="st11" d="m192.046997,316.966001l-14.22,0"/>
  </g>
  <g id="shape64-114">
   <title transform="translate(437.2439880371094,-271.2239990234375) ">动态连接线.64</title>
   <path id="svg_51" class="st11" d="m437.243988,316.966001l-29.81,0"/>
  </g>
  <g id="shape65-119">
   <title transform="translate(567.6380004882812,-271.2239990234375) ">动态连接线.65</title>
   <path id="svg_52" class="st11" d="m567.638,316.966001l-29.81,0"/>
  </g>
  <g id="shape67-124">
   <title transform="translate(306.8500061035156,-271.2239990234375) ">动态连接线.67</title>
   <path id="svg_53" class="st11" d="m306.850006,316.966001l-14.22,0"/>
  </g>
  <g id="shape69-129">
   <title transform="translate(306.8500061035156,-313.7439880371094) ">矩形.62</title>
   <desc transform="translate(306.8500061035156,-313.7439880371094) ">Origin/master</desc>
   <rect id="svg_54" class="st9" height="28.3465" width="93.5433" y="253.185012" x="306.850006"/>
   <text id="svg_55" class="st10" y="270.356012" x="325.110006">Origin/master</text>
  </g>
  <g id="shape70-132">
   <title transform="translate(346.5350036621094,-313.7439880371094) ">动态连接线.70</title>
   <path id="svg_56" class="st11" d="m353.625004,281.536012l0,14.22"/>
  </g>
  <g id="shape71-137">
   <title transform="translate(567.6380004882812,-212.59800720214844) ">矩形.71</title>
   <desc transform="translate(567.6380004882812,-212.59800720214844) ">master</desc>
   <rect id="svg_57" class="st9" height="28.3465" width="93.5433" y="354.330993" x="567.638"/>
   <text id="svg_58" class="st10" y="371.501993" x="600.158">master</text>
  </g>
  <g id="shape72-140">
   <title transform="translate(607.322998046875,-240.94500732421875) ">动态连接线.72</title>
   <path id="svg_59" class="st11" d="m614.412998,354.334993l0,-16.16"/>
  </g>
 </g>
 <g>
  <title>background</title>
  <rect fill="none" id="canvas_background" height="452" width="752" y="-1" x="-1"/>
 </g>
</svg>