<svg width="810" height="520" xmlns="http://www.w3.org/2000/svg" class="st16">
 <style type="text/css">
  <![CDATA[
		.st1 {visibility:visible}
		.st2 {fill:none;filter:url(#filter_2);stroke:#5b9bd5;stroke-opacity:0.22}
		.st3 {fill:#5b9bd5;filter:url(#filter_2);font-family:Calibri;font-size:1.5em;font-weight:bold;opacity:0.219608}
		.st4 {fill:none;stroke:#000000;stroke-width:6}
		.st5 {fill:#000000;font-family:Calibri;font-size:1.5em;font-weight:bold}
		.st6 {fill:#5b9bd5;fill-opacity:0.22;filter:url(#filter_2);stroke:#5b9bd5;stroke-opacity:0.22}
		.st7 {fill:#ffffff;stroke:#c7c8c8;stroke-width:0.25}
		.st8 {fill:#000000;font-family:Calibri;font-size:1.00001em;font-weight:bold}
		.st9 {fill:#f7cbac;stroke:#4f87bb;stroke-width:0.75}
		.st10 {fill:#000000;font-family:Calibri;font-size:0.833336em}
		.st11 {marker-end:url(#mrkr4-35);stroke:#5b9bd5;stroke-linecap:round;stroke-linejoin:round;stroke-width:1}
		.st12 {fill:#5b9bd5;fill-opacity:1;stroke:#5b9bd5;stroke-opacity:1;stroke-width:0.28409090909091}
		.st13 {fill:none;stroke:#002060;stroke-width:6}
		.st14 {fill:none;stroke:none;stroke-width:0.25}
		.st15 {fill:#000000;font-family:Calibri;font-size:1.00001em}
		.st16 {fill:none;fill-rule:evenodd;font-size:12px;overflow:visible;stroke-linecap:square;stroke-miterlimit:3}
	]]>
 </style>
 <defs>
  <g id="lend4">
   <path id="svg_1" d="m2,1l-2,-1l2,-1l0,2"/>
  </g>
 </defs>

 <g>
  <title>页-1</title>
  <g id="shape30-1">
   <title transform="translate(41.81100082397461,-419.52801513671875) ">矩形</title>
   <desc transform="translate(41.81100082397461,-419.52801513671875) ">git.ourcompany.com</desc>
   <g class="st1" transform="matrix(1,0,0,1,0.345598,1.97279) " id="shadow30-2">
    <rect id="svg_3" class="st2" height="133.228" width="383.386" y="42.518985" x="41.811001"/>
    <text id="svg_4" class="st3" y="62.721985" x="156.011001">git.ourcompany.com</text>
   </g>
   <rect id="svg_5" class="st4" height="133.228" width="383.386" y="42.518985" x="41.811001"/>
   <text id="svg_6" class="st5" y="62.721985" x="156.011001">git.ourcompany.com</text>
  </g>
  <g id="shape25-9">
   <title transform="translate(76.535400390625,-448.3890075683594) ">圆角矩形.25</title>
   <desc transform="translate(76.535400390625,-448.3890075683594) ">0b743</desc>
   <g class="st1" transform="matrix(1,0,0,1,0.345598,1.97279) " id="shadow25-10">
    <path id="svg_7" class="st6" d="m85.8854,146.890992l74.84,0a9.35418,9.35418 -180 0 0 9.35,-9.36l0,-9.64a9.35418,9.35418 -180 0 0 -9.35,-9.35l-74.84,0a9.35418,9.35418 -180 0 0 -9.35,9.35l0,9.64a9.35418,9.35418 -180 0 0 9.35,9.36z"/>
   </g>
   <path id="svg_8" class="st7" d="m85.8854,146.890992l74.84,0a9.35418,9.35418 -180 0 0 9.35,-9.36l0,-9.64a9.35418,9.35418 -180 0 0 -9.35,-9.35l-74.84,0a9.35418,9.35418 -180 0 0 -9.35,9.35l0,9.64a9.35418,9.35418 -180 0 0 9.35,9.36z"/>
   <text id="svg_9" class="st8" y="136.310992" x="107.9254">0b743</text>
  </g>
  <g id="shape26-15">
   <title transform="translate(191.33900451660156,-448.3890075683594) ">圆角矩形.26</title>
   <desc transform="translate(191.33900451660156,-448.3890075683594) ">a6b4c</desc>
   <g class="st1" transform="matrix(1,0,0,1,0.345598,1.97279) " id="shadow26-16">
    <path id="svg_10" class="st6" d="m200.689005,146.890992l74.84,0a9.35418,9.35418 -180 0 0 9.35,-9.36l0,-9.64a9.35418,9.35418 -180 0 0 -9.35,-9.35l-74.84,0a9.35418,9.35418 -180 0 0 -9.35,9.35l0,9.64a9.35418,9.35418 -180 0 0 9.35,9.36z"/>
   </g>
   <path id="svg_11" class="st7" d="m200.689005,146.890992l74.84,0a9.35418,9.35418 -180 0 0 9.35,-9.36l0,-9.64a9.35418,9.35418 -180 0 0 -9.35,-9.35l-74.84,0a9.35418,9.35418 -180 0 0 -9.35,9.35l0,9.64a9.35418,9.35418 -180 0 0 9.35,9.36z"/>
   <text id="svg_12" class="st8" y="136.310992" x="223.339005">a6b4c</text>
  </g>
  <g id="shape27-21">
   <title transform="translate(306.1419982910156,-448.3890075683594) ">圆角矩形.27</title>
   <desc transform="translate(306.1419982910156,-448.3890075683594) ">f4265</desc>
   <g class="st1" transform="matrix(1,0,0,1,0.345598,1.97279) " id="shadow27-22">
    <path id="svg_13" class="st6" d="m315.491998,146.890992l74.84,0a9.35418,9.35418 -180 0 0 9.35,-9.36l0,-9.64a9.35418,9.35418 -180 0 0 -9.35,-9.35l-74.84,0a9.35418,9.35418 -180 0 0 -9.35,9.35l0,9.64a9.35418,9.35418 -180 0 0 9.35,9.36z"/>
   </g>
   <path id="svg_14" class="st7" d="m315.491998,146.890992l74.84,0a9.35418,9.35418 -180 0 0 9.35,-9.36l0,-9.64a9.35418,9.35418 -180 0 0 -9.35,-9.35l-74.84,0a9.35418,9.35418 -180 0 0 -9.35,9.35l0,9.64a9.35418,9.35418 -180 0 0 9.35,9.36z"/>
   <text id="svg_15" class="st8" y="136.310992" x="338.851998">f4265</text>
  </g>
  <g id="shape33-27">
   <title transform="translate(307.5589904785156,-490.4800109863281) ">矩形.33</title>
   <desc transform="translate(307.5589904785156,-490.4800109863281) ">master</desc>
   <rect id="svg_16" class="st9" height="28.3465" width="93.5433" y="76.448989" x="307.55899"/>
   <text id="svg_17" class="st10" y="93.619989" x="340.07899">master</text>
  </g>
  <g id="shape34-30">
   <title transform="translate(191.33900451660156,-455.47601318359375) ">动态连接线</title>
   <path id="svg_18" class="st11" d="m191.339005,132.713987l-14.22,0"/>
  </g>
  <g id="shape40-36">
   <title transform="translate(306.1419982910156,-455.47601318359375) ">动态连接线.40</title>
   <path id="svg_19" class="st11" d="m306.141998,132.713987l-14.22,0"/>
  </g>
  <g id="shape56-41">
   <title transform="translate(42.51969909667969,-113.38600158691406) ">矩形.56</title>
   <desc transform="translate(42.51969909667969,-113.38600158691406) ">My computer</desc>
   <g class="st1" transform="matrix(1,0,0,1,0.345598,1.97279) " id="shadow56-42">
    <rect id="svg_20" class="st2" height="233.858" width="708.661" y="248.030998" x="42.519699"/>
    <text id="svg_21" class="st3" y="268.233998" x="346.249699">My computer</text>
   </g>
   <rect id="svg_22" class="st13" height="233.858" width="708.661" y="248.030998" x="42.519699"/>
   <text id="svg_23" class="st5" y="268.233998" x="346.249699">My computer</text>
  </g>
  <g id="shape57-49">
   <title transform="translate(77.24410247802734,-228.70399475097656) ">圆角矩形.57</title>
   <desc transform="translate(77.24410247802734,-228.70399475097656) ">0b743</desc>
   <g class="st1" transform="matrix(1,0,0,1,0.345598,1.97279) " id="shadow57-50">
    <path id="svg_24" class="st6" d="m86.594102,366.576005l74.84,0a9.35418,9.35418 -180 0 0 9.35,-9.36l0,-9.64a9.35418,9.35418 -180 0 0 -9.35,-9.35l-74.84,0a9.35418,9.35418 -180 0 0 -9.35,9.35l0,9.64a9.35418,9.35418 -180 0 0 9.35,9.36z"/>
   </g>
   <path id="svg_25" class="st7" d="m86.594102,366.576005l74.84,0a9.35418,9.35418 -180 0 0 9.35,-9.36l0,-9.64a9.35418,9.35418 -180 0 0 -9.35,-9.35l-74.84,0a9.35418,9.35418 -180 0 0 -9.35,9.35l0,9.64a9.35418,9.35418 -180 0 0 9.35,9.36z"/>
   <text id="svg_26" class="st8" y="355.996005" x="108.634102">0b743</text>
  </g>
  <g id="shape58-55">
   <title transform="translate(192.0469970703125,-228.70399475097656) ">圆角矩形.58</title>
   <desc transform="translate(192.0469970703125,-228.70399475097656) ">a6b4c</desc>
   <g class="st1" transform="matrix(1,0,0,1,0.345598,1.97279) " id="shadow58-56">
    <path id="svg_27" class="st6" d="m201.396997,366.576005l74.84,0a9.35418,9.35418 -180 0 0 9.35,-9.36l0,-9.64a9.35418,9.35418 -180 0 0 -9.35,-9.35l-74.84,0a9.35418,9.35418 -180 0 0 -9.35,9.35l0,9.64a9.35418,9.35418 -180 0 0 9.35,9.36z"/>
   </g>
   <path id="svg_28" class="st7" d="m201.396997,366.576005l74.84,0a9.35418,9.35418 -180 0 0 9.35,-9.36l0,-9.64a9.35418,9.35418 -180 0 0 -9.35,-9.35l-74.84,0a9.35418,9.35418 -180 0 0 -9.35,9.35l0,9.64a9.35418,9.35418 -180 0 0 9.35,9.36z"/>
   <text id="svg_29" class="st8" y="355.996005" x="224.046997">a6b4c</text>
  </g>
  <g id="shape59-61">
   <title transform="translate(306.8500061035156,-228.70399475097656) ">圆角矩形.59</title>
   <desc transform="translate(306.8500061035156,-228.70399475097656) ">f4265</desc>
   <g class="st1" transform="matrix(1,0,0,1,0.345598,1.97279) " id="shadow59-62">
    <path id="svg_30" class="st6" d="m316.200006,366.576005l74.84,0a9.35418,9.35418 -180 0 0 9.35,-9.36l0,-9.64a9.35418,9.35418 -180 0 0 -9.35,-9.35l-74.84,0a9.35418,9.35418 -180 0 0 -9.35,9.35l0,9.64a9.35418,9.35418 -180 0 0 9.35,9.36z"/>
   </g>
   <path id="svg_31" class="st7" d="m316.200006,366.576005l74.84,0a9.35418,9.35418 -180 0 0 9.35,-9.36l0,-9.64a9.35418,9.35418 -180 0 0 -9.35,-9.35l-74.84,0a9.35418,9.35418 -180 0 0 -9.35,9.35l0,9.64a9.35418,9.35418 -180 0 0 9.35,9.36z"/>
   <text id="svg_32" class="st8" y="355.996005" x="339.560006">f4265</text>
  </g>
  <g id="shape63-67">
   <title transform="translate(192.0469970703125,-235.79100036621094) ">动态连接线.63</title>
   <path id="svg_33" class="st11" d="m192.046997,352.399l-14.22,0"/>
  </g>
  <g id="shape67-72">
   <title transform="translate(306.8500061035156,-235.79100036621094) ">动态连接线.67</title>
   <path id="svg_34" class="st11" d="m306.850006,352.399l-14.22,0"/>
  </g>
  <g id="shape71-77">
   <title transform="translate(538.5830078125,-135.718994140625) ">矩形.71</title>
   <desc transform="translate(538.5830078125,-135.718994140625) ">master</desc>
   <rect id="svg_35" class="st9" height="28.3465" width="93.5433" y="431.210006" x="538.583008"/>
   <text id="svg_36" class="st10" y="448.381006" x="571.103008">master</text>
  </g>
  <g id="shape76-80">
   <title transform="translate(124.49800109863281,-391.02398681640625) ">工作表.76</title>
   <desc transform="translate(124.49800109863281,-391.02398681640625) ">origin</desc>
   <rect id="svg_37" class="st14" height="20" width="288.169" y="184.252013" x="124.498001"/>
   <text id="svg_38" class="st15" y="197.856013" x="254.598001">origin</text>
  </g>
  <g id="shape77-83">
   <title transform="translate(460.6300048828125,-419.52801513671875) ">矩形.77</title>
   <desc transform="translate(460.6300048828125,-419.52801513671875) ">git.team1.ourcompany.com</desc>
   <g class="st1" transform="matrix(1,0,0,1,0.345598,1.97279) " id="shadow77-84">
    <rect id="svg_39" class="st2" height="133.228" width="288.169" y="42.518985" x="460.630005"/>
    <text id="svg_40" class="st3" y="62.721985" x="500.850005">git.team1.ourcompany.com</text>
   </g>
   <rect id="svg_41" class="st4" height="133.228" width="288.169" y="42.518985" x="460.630005"/>
   <text id="svg_42" class="st5" y="62.721985" x="500.850005">git.team1.ourcompany.com</text>
  </g>
  <g id="shape79-91">
   <title transform="translate(482.5979919433594,-448.3890075683594) ">圆角矩形.79</title>
   <desc transform="translate(482.5979919433594,-448.3890075683594) ">f4265</desc>
   <g class="st1" transform="matrix(1,0,0,1,0.345598,1.97279) " id="shadow79-92">
    <path id="svg_43" class="st6" d="m491.947992,146.890992l74.84,0a9.35418,9.35418 -180 0 0 9.35,-9.36l0,-9.64a9.35418,9.35418 -180 0 0 -9.35,-9.35l-74.84,0a9.35418,9.35418 -180 0 0 -9.35,9.35l0,9.64a9.35418,9.35418 -180 0 0 9.35,9.36z"/>
   </g>
   <path id="svg_44" class="st7" d="m491.947992,146.890992l74.84,0a9.35418,9.35418 -180 0 0 9.35,-9.36l0,-9.64a9.35418,9.35418 -180 0 0 -9.35,-9.35l-74.84,0a9.35418,9.35418 -180 0 0 -9.35,9.35l0,9.64a9.35418,9.35418 -180 0 0 9.35,9.36z"/>
   <text id="svg_45" class="st8" y="136.310992" x="515.307992">f4265</text>
  </g>
  <g id="shape80-97">
   <title transform="translate(597.4019775390625,-448.3890075683594) ">圆角矩形.80</title>
   <desc transform="translate(597.4019775390625,-448.3890075683594) ">31b8e</desc>
   <g class="st1" transform="matrix(1,0,0,1,0.345598,1.97279) " id="shadow80-98">
    <path id="svg_46" class="st6" d="m606.751978,146.890992l74.84,0a9.35418,9.35418 -180 0 0 9.35,-9.36l0,-9.64a9.35418,9.35418 -180 0 0 -9.35,-9.35l-74.84,0a9.35418,9.35418 -180 0 0 -9.35,9.35l0,9.64a9.35418,9.35418 -180 0 0 9.35,9.36z"/>
   </g>
   <path id="svg_47" class="st7" d="m606.751978,146.890992l74.84,0a9.35418,9.35418 -180 0 0 9.35,-9.36l0,-9.64a9.35418,9.35418 -180 0 0 -9.35,-9.35l-74.84,0a9.35418,9.35418 -180 0 0 -9.35,9.35l0,9.64a9.35418,9.35418 -180 0 0 9.35,9.36z"/>
   <text id="svg_48" class="st8" y="136.310992" x="628.811978">31b8e</text>
  </g>
  <g id="shape81-103">
   <title transform="translate(598.8189697265625,-490.4800109863281) ">矩形.81</title>
   <desc transform="translate(598.8189697265625,-490.4800109863281) ">master</desc>
   <rect id="svg_49" class="st9" height="28.3465" width="93.5433" y="76.448989" x="598.81897"/>
   <text id="svg_50" class="st10" y="93.619989" x="631.33897">master</text>
  </g>
  <g id="shape83-106">
   <title transform="translate(597.4019775390625,-455.47601318359375) ">动态连接线.83</title>
   <path id="svg_51" class="st11" d="m597.401978,132.713987l-14.22,0"/>
  </g>
  <g id="shape87-111">
   <title transform="translate(396.8500061035156,-396.8500061035156) ">工作表.87</title>
   <desc transform="translate(396.8500061035156,-396.8500061035156) ">teamone</desc>
   <rect id="svg_52" class="st14" height="20" width="288.169" y="178.425994" x="396.850006"/>
   <text id="svg_53" class="st15" y="192.029994" x="518.970006">teamone</text>
  </g>
  <g id="shape88-114">
   <title transform="translate(257.5,-356.8500061035156) ">工作表.88</title>
   <desc transform="translate(257.5,-356.8500061035156) ">git remote add teamone git://git.team1.ourcompayn.com</desc>
   <rect id="svg_54" class="st14" height="20" width="351.948" y="218.425994" x="257.5"/>
   <text id="svg_55" class="st15" y="232.029994" x="292.46">git remote add teamone git://git.team1.ourcompayn.com</text>
  </g>
  <g id="shape89-117">
   <title transform="translate(421.65399169921875,-228.70399475097656) ">圆角矩形.89</title>
   <desc transform="translate(421.65399169921875,-228.70399475097656) ">31b8c</desc>
   <g class="st1" transform="matrix(1,0,0,1,0.345598,1.97279) " id="shadow89-118">
    <path id="svg_56" class="st6" d="m431.003992,366.576005l74.84,0a9.35418,9.35418 -180 0 0 9.35,-9.36l0,-9.64a9.35418,9.35418 -180 0 0 -9.35,-9.35l-74.84,0a9.35418,9.35418 -180 0 0 -9.35,9.35l0,9.64a9.35418,9.35418 -180 0 0 9.35,9.36z"/>
   </g>
   <path id="svg_57" class="st7" d="m431.003992,366.576005l74.84,0a9.35418,9.35418 -180 0 0 9.35,-9.36l0,-9.64a9.35418,9.35418 -180 0 0 -9.35,-9.35l-74.84,0a9.35418,9.35418 -180 0 0 -9.35,9.35l0,9.64a9.35418,9.35418 -180 0 0 9.35,9.36z"/>
   <text id="svg_58" class="st8" y="355.996005" x="453.573992">31b8c</text>
  </g>
  <g id="shape90-123">
   <title transform="translate(536.4569702148438,-228.70399475097656) ">圆角矩形.90</title>
   <desc transform="translate(536.4569702148438,-228.70399475097656) ">190a3</desc>
   <g class="st1" transform="matrix(1,0,0,1,0.345598,1.97279) " id="shadow90-124">
    <path id="svg_59" class="st6" d="m545.80697,366.576005l74.84,0a9.35418,9.35418 -180 0 0 9.35,-9.36l0,-9.64a9.35418,9.35418 -180 0 0 -9.35,-9.35l-74.84,0a9.35418,9.35418 -180 0 0 -9.35,9.35l0,9.64a9.35418,9.35418 -180 0 0 9.35,9.36z"/>
   </g>
   <path id="svg_60" class="st7" d="m545.80697,366.576005l74.84,0a9.35418,9.35418 -180 0 0 9.35,-9.36l0,-9.64a9.35418,9.35418 -180 0 0 -9.35,-9.35l-74.84,0a9.35418,9.35418 -180 0 0 -9.35,9.35l0,9.64a9.35418,9.35418 -180 0 0 9.35,9.36z"/>
   <text id="svg_61" class="st8" y="355.996005" x="568.10697">190a3</text>
  </g>
  <g id="shape91-129">
   <title transform="translate(421.65399169921875,-184.4669952392578) ">圆角矩形.91</title>
   <desc transform="translate(421.65399169921875,-184.4669952392578) ">e38de</desc>
   <g class="st1" transform="matrix(1,0,0,1,0.345598,1.97279) " id="shadow91-130">
    <path id="svg_62" class="st6" d="m431.003992,410.813005l74.84,0a9.35418,9.35418 -180 0 0 9.35,-9.36l0,-9.64a9.35418,9.35418 -180 0 0 -9.35,-9.35l-74.84,0a9.35418,9.35418 -180 0 0 -9.35,9.35l0,9.64a9.35418,9.35418 -180 0 0 9.35,9.36z"/>
   </g>
   <path id="svg_63" class="st7" d="m431.003992,410.813005l74.84,0a9.35418,9.35418 -180 0 0 9.35,-9.36l0,-9.64a9.35418,9.35418 -180 0 0 -9.35,-9.35l-74.84,0a9.35418,9.35418 -180 0 0 -9.35,9.35l0,9.64a9.35418,9.35418 -180 0 0 9.35,9.36z"/>
   <text id="svg_64" class="st8" y="400.233005" x="453.083992">e38de</text>
  </g>
  <g id="shape92-135">
   <title transform="translate(536.4569702148438,-184.4669952392578) ">圆角矩形.92</title>
   <desc transform="translate(536.4569702148438,-184.4669952392578) ">893cf</desc>
   <g class="st1" transform="matrix(1,0,0,1,0.345598,1.97279) " id="shadow92-136">
    <path id="svg_65" class="st6" d="m545.80697,410.813005l74.84,0a9.35418,9.35418 -180 0 0 9.35,-9.36l0,-9.64a9.35418,9.35418 -180 0 0 -9.35,-9.35l-74.84,0a9.35418,9.35418 -180 0 0 -9.35,9.35l0,9.64a9.35418,9.35418 -180 0 0 9.35,9.36z"/>
   </g>
   <path id="svg_66" class="st7" d="m545.80697,410.813005l74.84,0a9.35418,9.35418 -180 0 0 9.35,-9.36l0,-9.64a9.35418,9.35418 -180 0 0 -9.35,-9.35l-74.84,0a9.35418,9.35418 -180 0 0 -9.35,9.35l0,9.64a9.35418,9.35418 -180 0 0 9.35,9.36z"/>
   <text id="svg_67" class="st8" y="400.233005" x="569.69697">893cf</text>
  </g>
  <g id="shape94-141">
   <title transform="translate(536.4569702148438,-278.3110046386719) ">矩形.94</title>
   <desc transform="translate(536.4569702148438,-278.3110046386719) ">Origin/master</desc>
   <rect id="svg_68" class="st9" height="28.3465" width="93.5433" y="288.617995" x="536.45697"/>
   <text id="svg_69" class="st10" y="305.788995" x="554.71697">Origin/master</text>
  </g>
  <g id="shape96-144">
   <title transform="translate(421.65399169921875,-235.79100036621094) ">动态连接线.96</title>
   <path id="svg_70" class="st11" d="m421.653992,352.399l-14.22,0"/>
  </g>
  <g id="shape97-149">
   <title transform="translate(421.65399169921875,-198.63999938964844) ">动态连接线.97</title>
   <path id="svg_71" class="st11" d="m421.653992,396.640001l-20.46,-26.14"/>
  </g>
  <g id="shape98-154">
   <title transform="translate(536.4569702148438,-191.55299377441406) ">动态连接线.98</title>
   <path id="svg_72" class="st11" d="m536.45697,396.637006l-14.22,0"/>
  </g>
  <g id="shape99-159">
   <title transform="translate(536.4569702148438,-235.79100036621094) ">动态连接线.99</title>
   <path id="svg_73" class="st11" d="m536.45697,352.399l-14.22,0"/>
  </g>
  <g id="shape100-164">
   <title transform="translate(576.1420288085938,-278.3110046386719) ">动态连接线.100</title>
   <path id="svg_74" class="st11" d="m583.232029,316.968995l0,14.22"/>
  </g>
  <g id="shape102-169">
   <title transform="translate(591.3779907226562,-164.0659942626953) ">动态连接线.102</title>
   <path id="svg_75" class="st11" d="m585.357991,431.214006l0,-10.63l-2.13,0l0,-2.74"/>
  </g>
 </g>
 <g>
  <title>background</title>
  <rect fill="none" id="canvas_background" height="522" width="812" y="-1" x="-1"/>
 </g>
</svg>