<?xml version="1.0" encoding="UTF-8" standalone="no"?>
<!DOCTYPE svg PUBLIC "-//W3C//DTD SVG 1.1//EN" "http://www.w3.org/Graphics/SVG/1.1/DTD/svg11.dtd">
<!-- 由 Microsoft Visio, SVG Export 生成 私有管理团队工作流程.svg Page-1 -->
<svg xmlns="http://www.w3.org/2000/svg" xmlns:xlink="http://www.w3.org/1999/xlink" xmlns:ev="http://www.w3.org/2001/xml-events"
		xmlns:v="http://schemas.microsoft.com/visio/2003/SVGExtensions/" width="12.0806in" height="11.1464in"
		viewBox="0 0 869.804 802.544" xml:space="preserve" color-interpolation-filters="sRGB" class="st10">
	<v:documentProperties v:langID="2052" v:metric="true" v:viewMarkup="false">
		<v:userDefs>
			<v:ud v:nameU="msvSubprocessMaster" v:prompt="" v:val="VT4(Rectangle)"/>
			<v:ud v:nameU="msvNoAutoConnect" v:val="VT0(1):26"/>
		</v:userDefs>
	</v:documentProperties>

	<style type="text/css">
	<![CDATA[
		.st1 {fill:#ff0000;stroke:#4f87bb;stroke-width:0.75}
		.st2 {stroke:#5b9bd5;stroke-dasharray:7,5;stroke-linecap:round;stroke-linejoin:round;stroke-width:1}
		.st3 {fill:#ffffff;font-family:Consolas;font-size:1.16666em}
		.st4 {marker-end:url(#mrkr4-45);stroke:#5b9bd5;stroke-linecap:round;stroke-linejoin:round;stroke-width:1}
		.st5 {fill:#5b9bd5;fill-opacity:1;stroke:#5b9bd5;stroke-opacity:1;stroke-width:0.28409090909091}
		.st6 {fill:#ffffff;stroke:none;stroke-linecap:butt;stroke-width:7.2}
		.st7 {fill:#4f87bb;font-family:Consolas;font-size:1.16666em}
		.st8 {fill:#ffffff;stroke:none;stroke-linecap:butt}
		.st9 {font-size:1em}
		.st10 {fill:none;fill-rule:evenodd;font-size:12px;overflow:visible;stroke-linecap:square;stroke-miterlimit:3}
	]]>
	</style>

	<defs id="Markers">
		<g id="lend4">
			<path d="M 2 1 L 0 0 L 2 -1 L 2 1 " style="stroke:none"/>
		</g>
		<marker id="mrkr4-45" class="st5" v:arrowType="4" v:arrowSize="2" v:setback="7.04" refX="-7.04" orient="auto"
				markerUnits="strokeWidth" overflow="visible">
			<use xlink:href="#lend4" transform="scale(-3.52,-3.52) "/>
		</marker>
	</defs>
	<g v:mID="0" v:index="1" v:groupContext="foregroundPage">
		<v:userDefs>
			<v:ud v:nameU="msvThemeOrder" v:val="VT0(0):26"/>
		</v:userDefs>
		<title>页-1</title>
		<v:pageProperties v:drawingScale="0.0393701" v:pageScale="0.0393701" v:drawingUnits="24" v:shadowOffsetX="8.50394"
				v:shadowOffsetY="-8.50394"/>
		<v:layer v:name="连接线" v:index="0"/>
		<g id="group15-1" transform="translate(58.2104,-734.213)" v:mID="15" v:groupContext="group">
			<v:userDefs>
				<v:ud v:nameU="visVersion" v:prompt="" v:val="VT0(15):26"/>
				<v:ud v:nameU="ShowActor" v:prompt="" v:val="VT0(0):5"/>
				<v:ud v:nameU="ShowDestruction" v:prompt="" v:val="VT0(0):5"/>
			</v:userDefs>
			<title>对象生命线</title>
			<desc>Jessica</desc>
			<g id="shape16-2" v:mID="16" v:groupContext="shape" transform="translate(28.7958,-7.60944)">
				<title>工作表.16</title>
				<rect x="0" y="777.032" width="51.0236" height="25.5118" class="st1"/>
			</g>
			<g id="shape17-4" v:mID="17" v:groupContext="shape" transform="translate(45.8037,-44.274)">
				<title>工作表.17</title>
				<path d="M8.5 802.54 a0 0 0 1 1 0 0 a0 0 0 1 1 0 0 Z" class="st1"/>
			</g>
			<g id="shape18-6" v:mID="18" v:groupContext="shape" transform="translate(36.2051,661.61)">
				<title>工作表.18</title>
			</g>
			<g id="shape19-8" v:mID="19" v:groupContext="shape" transform="translate(856.851,802.544) rotate(90)">
				<title>工作表.19</title>
				<path d="M0 802.54 L638.56 802.54" class="st2"/>
			</g>
			<g id="shape15-11" v:mID="15" v:groupContext="groupContent">
				<v:textBlock v:margins="rect(4,4,4,4)" v:tabSpace="42.5197"/>
				<v:textRect cx="54.3076" cy="782.178" width="108.62" height="40.7307"/>
				<rect x="0" y="761.813" width="108.615" height="40.7307" class="st1"/>
				<text x="27.37" y="786.38" class="st3" v:langID="2052"><v:paragraph v:horizAlign="1"/><v:tabList/>Jessica</text>			</g>
		</g>
		<g id="group20-14" transform="translate(212.759,-734.213)" v:mID="20" v:groupContext="group">
			<v:userDefs>
				<v:ud v:nameU="visVersion" v:prompt="" v:val="VT0(15):26"/>
				<v:ud v:nameU="ShowActor" v:prompt="" v:val="VT0(0):5"/>
				<v:ud v:nameU="ShowDestruction" v:prompt="" v:val="VT0(0):5"/>
			</v:userDefs>
			<title>对象生命线.20</title>
			<desc>John</desc>
			<g id="shape21-15" v:mID="21" v:groupContext="shape" transform="translate(28.7958,-7.60944)">
				<title>工作表.21</title>
				<rect x="0" y="777.032" width="51.0236" height="25.5118" class="st1"/>
			</g>
			<g id="shape22-17" v:mID="22" v:groupContext="shape" transform="translate(45.8037,-44.274)">
				<title>工作表.22</title>
				<path d="M8.5 802.54 a0 0 0 1 1 0 0 a0 0 0 1 1 0 0 Z" class="st1"/>
			</g>
			<g id="shape23-19" v:mID="23" v:groupContext="shape" transform="translate(36.2051,652.234)">
				<title>工作表.23</title>
			</g>
			<g id="shape24-21" v:mID="24" v:groupContext="shape" transform="translate(856.851,802.544) rotate(90)">
				<title>工作表.24</title>
				<path d="M0 802.54 L629.18 802.54" class="st2"/>
			</g>
			<g id="shape20-24" v:mID="20" v:groupContext="groupContent">
				<v:textBlock v:margins="rect(4,4,4,4)" v:tabSpace="42.5197"/>
				<v:textRect cx="54.3076" cy="782.178" width="108.62" height="40.7307"/>
				<rect x="0" y="761.813" width="108.615" height="40.7307" class="st1"/>
				<text x="38.91" y="786.38" class="st3" v:langID="2052"><v:paragraph v:horizAlign="1"/><v:tabList/>John</text>			</g>
		</g>
		<g id="group25-27" transform="translate(367.308,-734.213)" v:mID="25" v:groupContext="group">
			<v:userDefs>
				<v:ud v:nameU="visVersion" v:prompt="" v:val="VT0(15):26"/>
				<v:ud v:nameU="ShowActor" v:prompt="" v:val="VT0(0):5"/>
				<v:ud v:nameU="ShowDestruction" v:prompt="" v:val="VT0(0):5"/>
			</v:userDefs>
			<title>对象生命线.25</title>
			<desc>Josie</desc>
			<g id="shape26-28" v:mID="26" v:groupContext="shape" transform="translate(28.7958,-7.60944)">
				<title>工作表.26</title>
				<rect x="0" y="777.032" width="51.0236" height="25.5118" class="st1"/>
			</g>
			<g id="shape27-30" v:mID="27" v:groupContext="shape" transform="translate(45.8037,-44.274)">
				<title>工作表.27</title>
				<path d="M8.5 802.54 a0 0 0 1 1 0 0 a0 0 0 1 1 0 0 Z" class="st1"/>
			</g>
			<g id="shape28-32" v:mID="28" v:groupContext="shape" transform="translate(36.2051,692.864)">
				<title>工作表.28</title>
			</g>
			<g id="shape29-34" v:mID="29" v:groupContext="shape" transform="translate(856.851,802.544) rotate(90)">
				<title>工作表.29</title>
				<path d="M0 802.54 L669.81 802.54" class="st2"/>
			</g>
			<g id="shape25-37" v:mID="25" v:groupContext="groupContent">
				<v:textBlock v:margins="rect(4,4,4,4)" v:tabSpace="42.5197"/>
				<v:textRect cx="54.3076" cy="782.178" width="108.62" height="40.7307"/>
				<rect x="0" y="761.813" width="108.615" height="40.7307" class="st1"/>
				<text x="35.06" y="786.38" class="st3" v:langID="2052"><v:paragraph v:horizAlign="1"/><v:tabList/>Josie</text>			</g>
		</g>
		<g id="shape34-40" v:mID="34" v:groupContext="shape" v:layerMember="0" transform="translate(588.965,-585.394)">
			<title>动态连接线.34</title>
			<desc>git fetch origin</desc>
			<v:textBlock v:margins="rect(4,4,4,4)" v:tabSpace="42.5197"/>
			<v:textRect cx="-160.949" cy="795.457" width="138.86" height="24.8035"/>
			<path d="M0 795.46 L-195.35 795.46 L-314.86 795.46" class="st4"/>
			<rect v:rectContext="textBkgnd" x="-222.527" y="787.057" width="123.157" height="16.8" class="st6"/>
			<text x="-222.53" y="799.66" class="st7" v:langID="2052"><v:paragraph v:horizAlign="1"/><v:tabList/>git fetch origin</text>		</g>
		<g id="shape45-48" v:mID="45" v:groupContext="shape" v:layerMember="0" transform="translate(105.431,-717.205)">
			<title>动态连接线.45</title>
			<desc>git commit(A)</desc>
			<v:textBlock v:margins="rect(4,4,4,4)" v:tabSpace="42.5197"/>
			<v:textRect cx="-43.3696" cy="819.551" width="115.77" height="24.8035"/>
			<path d="M7.09 802.54 L-20.69 802.54 L-20.69 836.56 L0.05 836.56" class="st4"/>
			<rect v:rectContext="textBkgnd" x="-93.4019" y="811.152" width="100.065" height="16.8" class="st8"/>
			<text x="-93.4" y="823.75" class="st7" v:langID="2052"><v:paragraph v:horizAlign="1"/><v:tabList/>git commit(A)</text>		</g>
		<g id="group50-55" transform="translate(521.857,-734.213)" v:mID="50" v:groupContext="group">
			<v:userDefs>
				<v:ud v:nameU="visVersion" v:prompt="" v:val="VT0(15):26"/>
				<v:ud v:nameU="ShowActor" v:prompt="" v:val="VT0(0):5"/>
				<v:ud v:nameU="ShowDestruction" v:prompt="" v:val="VT0(0):5"/>
			</v:userDefs>
			<title>对象生命线.50</title>
			<desc>server: featureA</desc>
			<g id="shape51-56" v:mID="51" v:groupContext="shape" transform="translate(41.5956,-12.4094)">
				<title>工作表.51</title>
				<rect x="0" y="777.032" width="51.0236" height="25.5118" class="st1"/>
			</g>
			<g id="shape52-58" v:mID="52" v:groupContext="shape" transform="translate(58.6034,-53.8738)">
				<title>工作表.52</title>
				<path d="M8.5 802.54 a0 0 0 1 1 0 0 a0 0 0 1 1 0 0 Z" class="st1"/>
			</g>
			<g id="shape53-60" v:mID="53" v:groupContext="shape" transform="translate(44.7382,711.92)">
				<title>工作表.53</title>
			</g>
			<g id="shape54-62" v:mID="54" v:groupContext="shape" transform="translate(869.651,802.544) rotate(90)">
				<title>工作表.54</title>
				<path d="M0 802.54 L685.44 802.54" class="st2"/>
			</g>
			<g id="shape50-65" v:mID="50" v:groupContext="groupContent">
				<v:textBlock v:margins="rect(4,4,4,4)" v:tabSpace="42.5197"/>
				<v:textRect cx="67.1074" cy="777.378" width="134.22" height="50.3305"/>
				<rect x="0" y="752.213" width="134.215" height="50.3305" class="st1"/>
				<text x="40.17" y="773.18" class="st3" v:langID="2052"><v:paragraph v:horizAlign="1"/><v:tabList/>server:<v:newlineChar/><tspan
							x="36.32" dy="1.2em" class="st9">featureA</tspan></text>			</g>
		</g>
		<g id="group55-69" transform="translate(702.006,-734.213)" v:mID="55" v:groupContext="group">
			<v:userDefs>
				<v:ud v:nameU="visVersion" v:prompt="" v:val="VT0(15):26"/>
				<v:ud v:nameU="ShowActor" v:prompt="" v:val="VT0(0):5"/>
				<v:ud v:nameU="ShowDestruction" v:prompt="" v:val="VT0(0):5"/>
			</v:userDefs>
			<title>对象生命线.55</title>
			<desc>server: featureBee</desc>
			<g id="shape56-70" v:mID="56" v:groupContext="shape" transform="translate(41.5956,-12.4094)">
				<title>工作表.56</title>
				<rect x="0" y="777.032" width="51.0236" height="25.5118" class="st1"/>
			</g>
			<g id="shape57-72" v:mID="57" v:groupContext="shape" transform="translate(58.6034,-53.8738)">
				<title>工作表.57</title>
				<path d="M8.5 802.54 a0 0 0 1 1 0 0 a0 0 0 1 1 0 0 Z" class="st1"/>
			</g>
			<g id="shape58-74" v:mID="58" v:groupContext="shape" transform="translate(44.7382,711.92)">
				<title>工作表.58</title>
			</g>
			<g id="shape59-76" v:mID="59" v:groupContext="shape" transform="translate(869.651,802.544) rotate(90)">
				<title>工作表.59</title>
				<path d="M0 802.54 L685.44 802.54" class="st2"/>
			</g>
			<g id="shape55-79" v:mID="55" v:groupContext="groupContent">
				<v:textBlock v:margins="rect(4,4,4,4)" v:tabSpace="42.5197"/>
				<v:textRect cx="67.1074" cy="777.378" width="134.22" height="50.3305"/>
				<rect x="0" y="752.213" width="134.215" height="50.3305" class="st1"/>
				<text x="40.17" y="773.18" class="st3" v:langID="2052"><v:paragraph v:horizAlign="1"/><v:tabList/>server:<v:newlineChar/><tspan
							x="28.62" dy="1.2em" class="st9">featureBee</tspan></text>			</g>
		</g>
		<g id="shape60-83" v:mID="60" v:groupContext="shape" v:layerMember="0" transform="translate(112.518,-670.434)">
			<title>动态连接线.60</title>
			<desc>git push origin featureA</desc>
			<v:textBlock v:margins="rect(4,4,4,4)" v:tabSpace="42.5197"/>
			<v:textRect cx="238.223" cy="809.63" width="200.44" height="24.8035"/>
			<path d="M0 809.63 L211.01 809.63 L469.41 809.63" class="st4"/>
			<rect v:rectContext="textBkgnd" x="145.856" y="801.231" width="184.735" height="16.8" class="st6"/>
			<text x="145.86" y="813.83" class="st7" v:langID="2052"><v:paragraph v:horizAlign="1"/><v:tabList/>git push origin featureA</text>		</g>
		<g id="shape62-90" v:mID="62" v:groupContext="shape" v:layerMember="0" transform="translate(259.98,-649.174)">
			<title>动态连接线.62</title>
			<desc>git commit(A)</desc>
			<v:textBlock v:margins="rect(4,4,4,4)" v:tabSpace="42.5197"/>
			<v:textRect cx="-44.8447" cy="823.803" width="115.77" height="24.8035"/>
			<path d="M7.09 802.54 L-22.17 802.54 L-22.17 845.06 L0.05 845.06" class="st4"/>
			<rect v:rectContext="textBkgnd" x="-94.877" y="815.404" width="100.065" height="16.8" class="st8"/>
			<text x="-94.88" y="828" class="st7" v:langID="2052"><v:paragraph v:horizAlign="1"/><v:tabList/>git commit(A)</text>		</g>
		<g id="shape63-97" v:mID="63" v:groupContext="shape" v:layerMember="0" transform="translate(259.98,-592.481)">
			<title>动态连接线.63</title>
			<desc>git merge(A)</desc>
			<v:textBlock v:margins="rect(4,4,4,4)" v:tabSpace="42.5197"/>
			<v:textRect cx="-41.8076" cy="823.803" width="108.07" height="24.8035"/>
			<path d="M7.09 802.54 L-19.13 802.54 L-19.13 845.06 L0.05 845.06" class="st4"/>
			<rect v:rectContext="textBkgnd" x="-87.9912" y="815.404" width="92.3676" height="16.8" class="st6"/>
			<text x="-87.99" y="828" class="st7" v:langID="2052"><v:paragraph v:horizAlign="1"/><v:tabList/>git merge(A)</text>		</g>
		<g id="shape64-104" v:mID="64" v:groupContext="shape" v:layerMember="0" transform="translate(267.067,-557.048)">
			<title>动态连接线.64</title>
			<desc>git push origin featureA</desc>
			<v:textBlock v:margins="rect(4,4,4,4)" v:tabSpace="42.5197"/>
			<v:textRect cx="160.949" cy="809.63" width="200.44" height="24.8035"/>
			<path d="M0 809.63 L126.54 809.63 L314.86 809.63" class="st4"/>
			<rect v:rectContext="textBkgnd" x="68.5814" y="801.231" width="184.735" height="16.8" class="st6"/>
			<text x="68.58" y="813.83" class="st7" v:langID="2052"><v:paragraph v:horizAlign="1"/><v:tabList/>git push origin featureA</text>		</g>
		<g id="shape65-111" v:mID="65" v:groupContext="shape" v:layerMember="0" transform="translate(414.529,-521.615)">
			<title>动态连接线.65</title>
			<desc>git commit(B)</desc>
			<v:textBlock v:margins="rect(4,4,4,4)" v:tabSpace="42.5197"/>
			<v:textRect cx="-38.5805" cy="823.803" width="115.77" height="24.8035"/>
			<path d="M7.09 802.54 L-15.9 802.54 L-15.9 845.06 L0.05 845.06" class="st4"/>
			<rect v:rectContext="textBkgnd" x="-88.6129" y="815.404" width="100.065" height="16.8" class="st6"/>
			<text x="-88.61" y="828" class="st7" v:langID="2052"><v:paragraph v:horizAlign="1"/><v:tabList/>git commit(B)</text>		</g>
		<g id="shape66-118" v:mID="66" v:groupContext="shape" v:layerMember="0" transform="translate(421.616,-486.182)">
			<title>动态连接线.66</title>
			<desc>git push origin featureBee</desc>
			<v:textBlock v:margins="rect(4,4,4,4)" v:tabSpace="42.5197"/>
			<v:textRect cx="173.749" cy="809.63" width="215.84" height="24.8035"/>
			<path d="M0 809.63 L123.77 809.63 L340.46 809.63" class="st4"/>
			<rect v:rectContext="textBkgnd" x="73.6839" y="801.231" width="200.13" height="16.8" class="st8"/>
			<text x="73.68" y="813.83" class="st7" v:langID="2052"><v:paragraph v:horizAlign="1"/><v:tabList/>git push origin featureBee</text>		</g>
		<g id="shape67-125" v:mID="67" v:groupContext="shape" v:layerMember="0" transform="translate(105.431,-464.922)">
			<title>动态连接线.67</title>
			<desc>git commit(B)</desc>
			<v:textBlock v:margins="rect(4,4,4,4)" v:tabSpace="42.5197"/>
			<v:textRect cx="-44.382" cy="820.969" width="115.77" height="24.8035"/>
			<path d="M7.09 802.54 L-21.7 802.54 L-21.7 839.39 L0.05 839.39" class="st4"/>
			<rect v:rectContext="textBkgnd" x="-94.4143" y="812.569" width="100.065" height="16.8" class="st8"/>
			<text x="-94.41" y="825.17" class="st7" v:langID="2052"><v:paragraph v:horizAlign="1"/><v:tabList/>git commit(B)</text>		</g>
		<g id="shape68-132" v:mID="68" v:groupContext="shape" v:layerMember="0" transform="translate(769.113,-401.142)">
			<title>动态连接线.68</title>
			<desc>git fetch origin</desc>
			<v:textBlock v:margins="rect(4,4,4,4)" v:tabSpace="42.5197"/>
			<v:textRect cx="-328.298" cy="795.457" width="138.86" height="24.8035"/>
			<path d="M0 795.46 L-363.89 795.46 L-649.56 795.46" class="st4"/>
			<rect v:rectContext="textBkgnd" x="-389.876" y="787.057" width="123.157" height="16.8" class="st8"/>
			<text x="-389.88" y="799.66" class="st7" v:langID="2052"><v:paragraph v:horizAlign="1"/><v:tabList/>git fetch origin</text>		</g>
		<g id="shape69-139" v:mID="69" v:groupContext="shape" v:layerMember="0" transform="translate(105.431,-408.229)">
			<title>动态连接线.69</title>
			<desc>git merge(B)</desc>
			<v:textBlock v:margins="rect(4,4,4,4)" v:tabSpace="42.5197"/>
			<v:textRect cx="-44.382" cy="828.055" width="108.07" height="24.8035"/>
			<path d="M7.09 802.54 L-21.7 802.54 L-21.7 853.57 L0.05 853.57" class="st4"/>
			<rect v:rectContext="textBkgnd" x="-90.5657" y="819.656" width="92.3676" height="16.8" class="st6"/>
			<text x="-90.57" y="832.26" class="st7" v:langID="2052"><v:paragraph v:horizAlign="1"/><v:tabList/>git merge(B)</text>		</g>
		<g id="shape70-146" v:mID="70" v:groupContext="shape" v:layerMember="0" transform="translate(112.518,-364.292)">
			<title>动态连接线.70</title>
			<desc>git push -u origin featureB:featureBee</desc>
			<v:textBlock v:margins="rect(4,4,4,4)" v:tabSpace="42.5197"/>
			<v:textRect cx="328.298" cy="809.63" width="308.2" height="24.8035"/>
			<path d="M0 809.63 L292.7 809.63 L649.56 809.63" class="st4"/>
			<rect v:rectContext="textBkgnd" x="182.049" y="801.231" width="292.497" height="16.8" class="st6"/>
			<text x="182.05" y="813.83" class="st7" v:langID="2052"><v:paragraph v:horizAlign="1"/><v:tabList/>git push -u origin featureB:featureBee</text>		</g>
		<g id="shape71-153" v:mID="71" v:groupContext="shape" v:layerMember="0" transform="translate(588.965,-313.268)">
			<title>动态连接线.71</title>
			<desc>git fetch origin</desc>
			<v:textBlock v:margins="rect(4,4,4,4)" v:tabSpace="42.5197"/>
			<v:textRect cx="-238.223" cy="795.457" width="138.86" height="24.8035"/>
			<path d="M0 795.46 L-265.44 795.46 L-469.41 795.46" class="st4"/>
			<rect v:rectContext="textBkgnd" x="-299.802" y="787.057" width="123.157" height="16.8" class="st6"/>
			<text x="-299.8" y="799.66" class="st7" v:langID="2052"><v:paragraph v:horizAlign="1"/><v:tabList/>git fetch origin</text>		</g>
		<g id="shape72-160" v:mID="72" v:groupContext="shape" v:layerMember="0" transform="translate(105.431,-320.355)">
			<title>动态连接线.72</title>
			<desc>git merge(A)</desc>
			<v:textBlock v:margins="rect(4,4,4,4)" v:tabSpace="42.5197"/>
			<v:textRect cx="-39.3201" cy="820.969" width="108.07" height="24.8035"/>
			<path d="M7.09 802.54 L-16.64 802.54 L-16.64 839.39 L0.05 839.39" class="st4"/>
			<rect v:rectContext="textBkgnd" x="-85.5038" y="812.569" width="92.3676" height="16.8" class="st6"/>
			<text x="-85.5" y="825.17" class="st7" v:langID="2052"><v:paragraph v:horizAlign="1"/><v:tabList/>git merge(A)</text>		</g>
		<g id="shape73-167" v:mID="73" v:groupContext="shape" v:layerMember="0" transform="translate(105.431,-249.489)">
			<title>动态连接线.73</title>
			<desc>git commit(A)</desc>
			<v:textBlock v:margins="rect(4,4,4,4)" v:tabSpace="42.5197"/>
			<v:textRect cx="-39.3201" cy="820.969" width="115.77" height="24.8035"/>
			<path d="M7.09 802.54 L-16.64 802.54 L-16.64 839.39 L0.05 839.39" class="st4"/>
			<rect v:rectContext="textBkgnd" x="-89.3525" y="812.569" width="100.065" height="16.8" class="st6"/>
			<text x="-89.35" y="825.17" class="st7" v:langID="2052"><v:paragraph v:horizAlign="1"/><v:tabList/>git commit(A)</text>		</g>
		<g id="shape74-174" v:mID="74" v:groupContext="shape" v:layerMember="0" transform="translate(112.518,-219.725)">
			<title>动态连接线.74</title>
			<desc>git push origin featureA</desc>
			<v:textBlock v:margins="rect(4,4,4,4)" v:tabSpace="42.5197"/>
			<v:textRect cx="238.223" cy="809.63" width="200.44" height="24.8035"/>
			<path d="M0 809.63 L211.01 809.63 L469.41 809.63" class="st4"/>
			<rect v:rectContext="textBkgnd" x="145.856" y="801.231" width="184.735" height="16.8" class="st6"/>
			<text x="145.86" y="813.83" class="st7" v:langID="2052"><v:paragraph v:horizAlign="1"/><v:tabList/>git push origin featureA</text>		</g>
	</g>
</svg>
